<svg width="140" height="51" viewBox="0 0 140 51" fill="none" xmlns="http://www.w3.org/2000/svg">
<path fill-rule="evenodd" clip-rule="evenodd" d="M97.3697 41.3626C95.061 38.8472 88.8983 40.5102 89.1413 45.0901C88.7995 44.359 88.6249 43.5862 88.9704 42.9119C88.0857 43.1619 86.8516 43.3135 86.0163 42.8551C85.1695 42.3892 84.0911 40.9951 85.8036 40.6769C85.6745 38.673 88.7692 38.3737 88.8299 40.7072C88.8451 40.7224 88.5831 40.9194 88.5755 40.9345C88.4198 39.0973 86.3086 39.4685 86.4567 41.0406C86.6314 42.9536 88.5717 42.3437 89.4185 41.7528C91.7727 40.1163 94.6205 38.7033 97.2178 41.0633L97.3697 41.3588V41.3626Z" fill="#1A1A18"/>
<path fill-rule="evenodd" clip-rule="evenodd" d="M112.52 45.7646C111.822 48.2573 107.166 49.3331 105.803 46.1965C105.818 46.8026 105.963 47.3784 106.414 47.708C105.742 47.8557 104.869 48.1891 104.466 48.7914C104.056 49.4013 103.806 50.712 105.051 50.318C105.632 51.6969 107.793 50.7991 107.052 49.2232C107.056 49.2081 106.817 49.1702 106.809 49.1626C107.318 50.4392 105.792 50.9431 105.363 49.8407C104.842 48.5035 106.335 48.2232 107.094 48.3179C109.205 48.5755 111.571 48.5073 112.513 46.0147V45.7646H112.52Z" fill="#1A1A18"/>
<path fill-rule="evenodd" clip-rule="evenodd" d="M124.071 38.5368C121.99 37.423 121.884 32.8469 124.91 32.1348C124.367 32.0363 123.836 32.0666 123.46 32.434C123.452 31.7749 123.315 30.8922 122.856 30.4036C122.389 29.9073 121.276 29.43 121.398 30.6763C120.073 30.9718 120.471 33.1727 122.002 32.7636C122.013 32.7712 122.093 32.5515 122.1 32.5439C120.878 32.7901 120.711 31.2597 121.762 31.0589C123.038 30.8127 123.015 32.2673 122.795 32.9682C122.184 34.9115 121.816 37.1503 123.847 38.4913L124.067 38.5405L124.071 38.5368Z" fill="#1A1A18"/>
<path fill-rule="evenodd" clip-rule="evenodd" d="M120.373 30.0854C120.008 30.4643 119.723 30.8166 119.317 31.0666C118.789 31.3886 118.341 31.2901 117.787 31.5856C117.946 31.2333 118.106 30.809 118.444 30.5741C118.918 30.2408 119.579 30.4453 120.031 30.237C119.606 30.4567 118.922 30.4037 118.622 31.0211C119.196 30.9757 119.799 30.6158 120.373 30.0892V30.0854Z" fill="#1A1A18"/>
<path fill-rule="evenodd" clip-rule="evenodd" d="M119.83 30.3203C119.833 30.7067 119.868 31.0401 119.792 31.3848C119.685 31.8356 119.408 32.0212 119.275 32.472C119.177 32.2068 119.044 31.9076 119.097 31.6045C119.169 31.1802 119.609 30.9302 119.735 30.5779C119.632 30.9188 119.256 31.2598 119.416 31.7333C119.685 31.4037 119.811 30.8961 119.833 30.3203H119.83Z" fill="#1A1A18"/>
<path d="M122.951 26.2404C122.951 26.2404 122.833 25.9904 122.624 26.051C122.416 26.1078 122.222 26.2934 122.146 26.4071C122.074 26.5207 122.017 26.5245 121.911 26.6419C121.804 26.7632 121.785 26.748 121.732 26.873C121.679 26.9942 121.652 27.0359 121.485 27.1003C121.318 27.1647 121.03 27.3465 120.935 27.4753C120.84 27.6041 120.851 27.7557 120.749 27.911C120.631 28.0928 120.395 28.3618 120.43 28.6042C120.441 28.6913 120.498 28.7482 120.528 28.8201C120.817 28.5701 120.828 28.0852 121.056 27.8011C121.242 27.57 121.489 27.2594 121.743 27.1117C121.345 27.4488 121.364 27.4867 121.204 27.6609C121.098 27.7822 120.98 27.9943 120.912 28.1534C120.844 28.3239 120.76 28.7292 120.574 28.9224C120.711 28.8466 120.954 28.4375 121.068 28.3542C121.421 28.0966 121.986 26.8882 122.256 26.5965C121.922 27.1382 121.09 28.6913 120.623 28.9906C120.863 28.8429 121.098 28.8845 121.785 28.358C121.569 28.6118 121.03 28.9603 120.768 29.0512C120.547 29.127 120.563 29.2823 120.475 29.4717C120.475 29.4717 121.132 29.3959 121.345 29.1573C121.561 28.9186 121.903 28.5436 122.062 28.1383C122.222 27.7329 122.4 27.1192 122.469 26.9147C122.533 26.7063 122.602 26.6154 122.746 26.4677C122.89 26.3199 122.947 26.2366 122.947 26.2366L122.951 26.2404Z" fill="#1A1A18"/>
<path d="M120.331 29.5474C120.354 28.9526 119.837 28.0473 119.454 27.676C119.761 28.1117 120.228 28.9223 120.217 29.5815C119.959 29.4451 119.59 28.767 119.423 28.5246C119.207 28.214 118.713 27.4942 118.485 27.1949C118.296 26.9449 118.383 27.0737 118.239 26.8464C118.865 27.6344 119.514 28.8807 120.103 29.7141C119.811 29.2974 119.275 29.0701 118.93 28.7102C118.573 28.3352 118.166 27.7821 117.745 27.2328C119.032 29.1837 119.64 29.5891 120.001 29.8088C119.401 29.661 119.12 29.5247 118.827 29.3731C118.535 29.2216 118.117 28.9223 117.627 28.517C117.961 28.8276 118.607 29.3277 118.804 29.4413C119.123 29.6231 119.526 29.8429 119.769 29.9641C119.222 29.8656 118.25 29.3466 117.806 28.9261C117.517 28.6534 117.267 28.3996 117.369 28.1496C117.472 27.8957 117.517 27.8768 117.494 27.7518C117.472 27.6344 117.491 27.5548 117.536 27.5359C117.582 27.5131 117.608 27.5018 117.623 27.3919C117.639 27.2821 117.722 27.1608 117.794 27.104C117.867 27.051 117.889 27.0699 117.923 27.0093C117.954 26.9487 117.98 26.8654 118.087 26.7745C118.193 26.6835 118.239 26.7101 118.269 26.7025C118.299 26.6911 118.364 26.6457 118.504 26.6381C118.645 26.6305 118.808 26.7366 118.971 26.8389C119.142 26.9411 119.556 27.3199 119.807 27.7329C120.061 28.1458 120.266 28.4678 120.316 28.6799C120.361 28.8617 120.49 29.2671 120.331 29.5474Z" fill="#1A1A18"/>
<path d="M117.4 28.6611C117.4 28.6611 117.274 28.6763 117.194 28.7445C117.119 28.8127 117.073 28.8468 116.978 28.8733C116.883 28.8998 116.811 28.9301 116.819 29.0059C116.826 29.0816 116.883 29.1574 116.875 29.1991C116.868 29.2407 116.875 29.2597 116.959 29.3051C117.046 29.3468 117.407 29.4869 117.529 29.5286C117.646 29.5665 117.965 29.7408 118.182 29.7786C118.402 29.8127 118.523 29.7938 118.653 29.8127C118.782 29.8355 118.839 29.8165 118.99 29.8544C119.142 29.8923 119.226 29.8999 119.226 29.8999C119.226 29.8999 118.747 29.737 118.504 29.5703C118.261 29.3998 117.973 29.2521 117.787 29.0854C117.601 28.9187 117.456 28.7445 117.456 28.7445L117.403 28.6687L117.4 28.6611Z" fill="#1A1A18"/>
<path d="M116.613 29.2483C116.613 29.2483 116.367 29.1687 116.241 29.1725C116.116 29.1725 116.055 29.2331 116.036 29.3164C116.017 29.396 116.01 29.4945 116.059 29.5475L116.108 29.6006C116.108 29.6006 116.097 29.5437 116.146 29.5475C116.196 29.5475 116.329 29.6612 116.469 29.7521C116.61 29.843 116.837 29.9604 117.168 30.0551C117.513 30.1574 117.992 30.2142 118.497 30.2218C118.649 30.2218 119.116 30.2067 119.499 30.0854C119.385 30.0968 118.968 30.1006 118.789 30.0703C118.607 30.04 118.368 30.0627 118.17 30.0627C117.768 30.0627 117.35 30.0627 117.027 29.7218C117.418 30.0968 117.965 30.0438 118.504 30.0324C118.884 30.0248 119.23 30.112 119.613 30.04C119.374 29.9907 119.104 30.0173 118.858 29.9945C118.501 29.9604 118.208 29.9794 117.605 29.7369C116.997 29.4907 116.613 29.2558 116.613 29.2558V29.2483Z" fill="#1A1A18"/>
<path d="M117.791 26.9565C117.791 26.9565 117.517 26.8429 117.43 26.8997C117.343 26.9527 117.263 27.0285 117.263 27.0815V27.1308C117.263 27.1308 117.24 27.1346 117.175 27.1687C117.111 27.2028 117.107 27.2179 117.111 27.2937C117.111 27.3694 117.141 27.4187 117.111 27.4452C117.084 27.4717 117.012 27.4603 116.974 27.4982C116.94 27.5399 116.94 27.6157 116.951 27.6838C116.963 27.7558 116.967 27.7823 116.967 27.7823C116.967 27.7823 116.921 27.8392 116.879 27.8695C116.838 27.8998 116.788 27.9377 116.8 28.0096C116.811 28.0816 116.906 28.324 116.974 28.4187C117.043 28.5135 117.069 28.5703 117.069 28.5703C117.069 28.5703 117.198 28.5021 117.244 28.4945L117.289 28.4869C117.289 28.4869 117.225 28.324 117.217 28.2407C117.206 28.1536 117.305 27.949 117.343 27.896C117.381 27.843 117.358 27.7369 117.358 27.646C117.358 27.5551 117.426 27.4376 117.475 27.3997C117.525 27.3619 117.498 27.2899 117.551 27.1838C117.605 27.0777 117.612 27.0323 117.681 27.0058C117.753 26.9793 117.787 26.9527 117.787 26.9527L117.791 26.9565Z" fill="#1A1A18"/>
<path d="M120.338 25.2138C120.338 25.2138 120.187 25.0547 120.061 25.0623C119.936 25.0699 119.833 25.0964 119.746 25.1608C119.659 25.2252 119.568 25.4221 119.59 25.5737C119.613 25.729 119.632 25.8654 119.632 25.8654C119.632 25.8654 119.632 26.0775 119.644 26.1798C119.655 26.2821 119.723 26.4298 119.712 26.5131C119.701 26.5965 119.682 26.6457 119.651 26.7556C119.621 26.8654 119.606 27.0511 119.609 27.1382C119.609 27.1382 119.894 27.4753 119.947 27.57C120.001 27.6647 120.156 27.8845 120.228 28.0549C120.301 28.2254 120.327 28.3315 120.327 28.3315C120.327 28.3315 120.365 28.1799 120.449 28.0398C120.532 27.9034 120.627 27.8466 120.661 27.6723C120.695 27.4981 120.76 27.3503 120.813 27.3087L120.87 27.267C120.87 27.267 120.695 26.7253 120.559 26.5169C120.422 26.3086 120.171 25.8957 120.122 25.7025C120.092 25.5926 119.97 25.3388 120.039 25.2214C120.099 25.1191 120.263 25.1305 120.338 25.21V25.2138Z" fill="#1A1A18"/>
<path d="M119.48 25.1381C119.48 25.1381 119.226 25.301 119.222 25.4108C119.222 25.5169 119.158 25.6836 119.222 25.8616C119.283 26.0396 119.378 26.3351 119.328 26.4639C119.279 26.5927 119.173 26.8049 119.173 26.8049C119.173 26.8049 119.177 26.8276 119.294 26.9223C119.412 27.017 119.461 27.0852 119.461 27.0852C119.461 27.0852 119.492 26.892 119.522 26.7367C119.552 26.5814 119.609 26.5359 119.564 26.2707C119.518 26.0018 119.499 25.8161 119.469 25.6836C119.439 25.5472 119.408 25.4525 119.469 25.301C119.53 25.1494 119.48 25.1343 119.48 25.1343V25.1381Z" fill="#1A1A18"/>
<path d="M119.127 25.3767C119.127 25.3767 118.998 25.3427 118.934 25.3389C118.869 25.3389 118.778 25.426 118.778 25.5472C118.774 25.6684 118.732 25.7934 118.694 25.9374C118.656 26.0851 118.577 26.2745 118.603 26.373L118.634 26.4715C118.634 26.4715 118.748 26.5435 118.839 26.5814C118.93 26.6193 118.983 26.6571 119.032 26.6988L119.085 26.7367C119.085 26.7367 119.158 26.6571 119.199 26.4677C119.245 26.2745 119.207 26.1344 119.142 25.9185C119.082 25.7025 119.066 25.6306 119.104 25.5245C119.146 25.4146 119.15 25.373 119.15 25.373L119.12 25.3843L119.127 25.3767Z" fill="#1A1A18"/>
<path d="M118.599 25.9336C118.599 25.9336 118.55 26.0624 118.523 26.1495C118.497 26.2366 118.459 26.3162 118.493 26.3806L118.527 26.4488C118.527 26.4488 118.41 26.5208 118.315 26.5283C118.216 26.5359 118.106 26.5776 118.041 26.6268C117.973 26.6761 117.893 26.7784 117.874 26.82C117.851 26.8617 117.817 26.9034 117.817 26.9034C117.817 26.9034 117.715 26.8314 117.643 26.8352C117.567 26.8352 117.555 26.8049 117.555 26.8049C117.555 26.8049 117.502 26.7821 117.532 26.6837C117.563 26.5814 117.631 26.5852 117.643 26.4942C117.654 26.4033 117.684 26.3579 117.65 26.2897L117.616 26.2253C117.616 26.2253 117.62 26.1836 117.684 26.1874H117.749C117.749 26.1874 117.715 26.123 117.768 26.0586C117.825 25.9904 117.825 26.0283 117.912 26.0283C117.999 26.0283 118.064 25.9677 118.136 25.9677C118.212 25.9677 118.163 26.0245 118.311 25.998C118.455 25.9677 118.599 25.9412 118.599 25.9412V25.9336Z" fill="#1A1A18"/>
<path d="M117.548 26.3994C117.548 26.3994 117.396 26.4221 117.35 26.4297C117.305 26.4373 117.316 26.4562 117.312 26.4979C117.305 26.5434 117.312 26.5888 117.259 26.5888C117.21 26.5888 117.202 26.6343 117.225 26.6835C117.248 26.7328 117.286 26.8237 117.24 26.8691C117.194 26.9146 117.126 26.926 117.122 27.0093V27.0926L117.183 27.0434C117.183 27.0434 117.191 27.051 117.24 26.9449C117.293 26.8388 117.289 26.8161 117.358 26.8047L117.426 26.7934C117.426 26.7934 117.445 26.729 117.46 26.6229C117.475 26.5206 117.498 26.5131 117.536 26.46L117.574 26.4032H117.544L117.548 26.3994Z" fill="#1A1A18"/>
<path fill-rule="evenodd" clip-rule="evenodd" d="M120.992 29.6383C121.261 29.3656 121.474 29.1118 121.77 28.9375C122.157 28.7064 122.48 28.786 122.886 28.5776C122.769 28.8314 122.647 29.1383 122.397 29.3088C122.051 29.5436 121.569 29.3883 121.235 29.536C121.546 29.3807 122.043 29.4262 122.267 28.9792C121.85 29.0057 121.405 29.2595 120.984 29.6383H120.992Z" fill="#1A1A18"/>
<path fill-rule="evenodd" clip-rule="evenodd" d="M112.942 45.8633C112.961 46.7308 113.04 47.4732 112.866 48.2422C112.638 49.2461 112.019 49.6704 111.734 50.6705C111.514 50.0833 111.21 49.4128 111.324 48.7385C111.48 47.7915 112.456 47.2232 112.729 46.4353C112.501 47.2005 111.673 47.9619 112.034 49.0226C112.623 48.2763 112.9 47.1437 112.942 45.8633Z" fill="#1A1A18"/>
<path d="M108.283 37.6578C108.283 37.6578 107.948 37.2411 107.573 37.4495C107.2 37.6578 106.912 38.1086 106.825 38.3586C106.737 38.6124 106.631 38.6427 106.479 38.923C106.331 39.2034 106.289 39.1882 106.244 39.4458C106.198 39.7034 106.16 39.7981 105.875 39.9989C105.59 40.2034 105.116 40.6883 104.994 40.9762C104.873 41.2641 104.96 41.5482 104.835 41.893C104.691 42.2983 104.364 42.9233 104.539 43.3741C104.599 43.5332 104.732 43.6166 104.827 43.7416C105.268 43.1279 105.074 42.1922 105.374 41.5407C105.625 41.0065 105.955 40.3019 106.376 39.8966C105.773 40.7338 105.814 40.7982 105.594 41.2111C105.442 41.4914 105.313 41.9536 105.264 42.2945C105.211 42.6544 105.226 43.4726 104.96 43.9272C105.188 43.7151 105.469 42.8173 105.647 42.6051C106.206 41.946 106.745 39.3625 107.124 38.6768C106.73 39.8701 105.841 43.2453 105.082 44.0371C105.473 43.6393 105.944 43.609 107.018 42.268C106.718 42.8589 105.849 43.7833 105.385 44.0787C104.994 44.3287 105.093 44.6166 105.021 45.0258C105.021 45.0258 106.24 44.5674 106.54 44.0068C106.844 43.4461 107.33 42.571 107.447 41.7187C107.565 40.8664 107.641 39.6125 107.671 39.1844C107.702 38.7564 107.793 38.548 108.002 38.1957C108.21 37.8434 108.283 37.6578 108.283 37.6578Z" fill="#1A1A18"/>
<path d="M104.77 45.2383C104.546 44.0867 103.149 42.6093 102.253 42.079C103.039 42.7684 104.296 44.0867 104.569 45.3519C104.018 45.2193 103.008 44.098 102.576 43.7154C102.021 43.2268 100.761 42.0865 100.187 41.6244C99.7125 41.238 99.9404 41.4425 99.5606 41.0751C101.121 42.2835 102.921 44.3556 104.421 45.6588C103.669 45.0034 102.545 44.8292 101.721 44.3026C100.867 43.7571 99.8378 42.8934 98.7936 42.0486C102.131 45.1549 103.475 45.6398 104.265 45.8898C103.054 45.8898 102.458 45.7648 101.824 45.6171C101.197 45.4731 100.263 45.0943 99.1467 44.5564C99.9252 44.9883 101.383 45.636 101.816 45.7573C102.511 45.9542 103.381 46.174 103.897 46.2952C102.807 46.3672 100.719 45.8444 99.6746 45.2534C98.9987 44.8708 98.4063 44.511 98.4899 43.9768C98.5696 43.4465 98.6493 43.3821 98.5506 43.1662C98.4519 42.9464 98.4519 42.7911 98.5316 42.7267C98.6076 42.6623 98.6531 42.6244 98.6303 42.4085C98.6114 42.1964 98.7139 41.9161 98.8278 41.7797C98.9417 41.6395 98.9987 41.666 99.029 41.5335C99.0594 41.4047 99.0746 41.2304 99.2341 41.0069C99.3936 40.7796 99.4923 40.8137 99.5455 40.7834C99.5986 40.7493 99.6973 40.6281 99.9669 40.5485C100.237 40.469 100.59 40.594 100.954 40.7076C101.323 40.8175 102.283 41.3478 102.955 42.0146C103.627 42.6813 104.163 43.2003 104.356 43.5791C104.523 43.9048 104.956 44.6208 104.774 45.2307L104.77 45.2383Z" fill="#1A1A18"/>
<path d="M98.767 44.9579C98.767 44.9579 98.5278 45.045 98.4139 45.2117C98.3 45.3822 98.2279 45.4655 98.0532 45.5602C97.8823 45.6549 97.7608 45.7458 97.8102 45.8898C97.8595 46.0299 98 46.1436 98.0038 46.2269C98.0114 46.3103 98.0266 46.3481 98.2089 46.386C98.3911 46.4239 99.1468 46.5186 99.3936 46.5376C99.6404 46.5565 100.324 46.7383 100.761 46.7004C101.197 46.6626 101.417 46.5641 101.676 46.5451C101.934 46.5224 102.029 46.4618 102.34 46.4618C102.648 46.4618 102.815 46.4353 102.815 46.4353C102.815 46.4353 101.828 46.3595 101.285 46.1512C100.742 45.9466 100.123 45.7951 99.6935 45.5678C99.2645 45.3367 98.9075 45.0753 98.9075 45.0753L98.7708 44.9541L98.767 44.9579Z" fill="#1A1A18"/>
<path d="M97.533 46.4466C97.533 46.4466 97.0242 46.4163 96.7849 46.4807C96.5457 46.5451 96.4546 46.6852 96.4546 46.8519C96.4546 47.0148 96.4812 47.2042 96.6027 47.2838L96.7242 47.3633C96.7242 47.3633 96.671 47.261 96.7735 47.2421C96.8723 47.2194 97.1722 47.3709 97.4836 47.4807C97.795 47.5868 98.2848 47.7042 98.9569 47.727C99.6632 47.7535 100.605 47.6361 101.566 47.405C101.858 47.3368 102.743 47.0792 103.419 46.6663C103.202 46.7383 102.412 46.9466 102.059 46.9769C101.695 47.0072 101.247 47.1625 100.871 47.2572C100.104 47.4467 99.3062 47.6474 98.5354 47.1512C99.4505 47.6777 100.472 47.3179 101.497 47.0337C102.219 46.833 102.921 46.833 103.616 46.5148C103.134 46.5375 102.633 46.7155 102.154 46.7875C101.455 46.8898 100.909 47.0716 99.6404 46.8936C98.3721 46.7193 97.5292 46.4466 97.5292 46.4466H97.533Z" fill="#1A1A18"/>
<path d="M98.7442 41.5103C98.7442 41.5103 98.1747 41.427 98.0266 41.5709C97.8785 41.7187 97.7646 41.8967 97.7873 41.9952L97.8101 42.0937C97.8101 42.0937 97.7684 42.1126 97.662 42.2111C97.5557 42.3096 97.5557 42.3399 97.5975 42.4839C97.6393 42.6278 97.7076 42.7074 97.6658 42.7718C97.6241 42.8362 97.4798 42.8513 97.4304 42.9422C97.381 43.0332 97.4228 43.1809 97.4722 43.3097C97.5253 43.4385 97.5443 43.4915 97.5443 43.4915C97.5443 43.4915 97.4836 43.6203 97.4152 43.7037C97.3507 43.7832 97.2709 43.8779 97.3241 44.0067C97.3773 44.1355 97.6696 44.556 97.8405 44.7075C98.0114 44.8553 98.0873 44.95 98.0873 44.95C98.0873 44.95 98.3075 44.7568 98.3911 44.7227L98.4746 44.6848C98.4746 44.6848 98.281 44.4045 98.224 44.2454C98.1671 44.0863 98.262 43.6468 98.3113 43.5256C98.3569 43.4044 98.2734 43.215 98.2316 43.0407C98.186 42.8665 98.2696 42.6051 98.3493 42.5104C98.4291 42.4157 98.3493 42.2869 98.3987 42.0596C98.4518 41.8323 98.4442 41.7452 98.5695 41.6581C98.6911 41.5747 98.7442 41.5103 98.7442 41.5103Z" fill="#1A1A18"/>
<path d="M102.826 36.9535C102.826 36.9535 102.462 36.7186 102.226 36.7944C101.987 36.8701 101.805 36.9686 101.668 37.1353C101.531 37.302 101.44 37.7149 101.558 38.0028C101.676 38.2869 101.771 38.5407 101.771 38.5407C101.771 38.5407 101.865 38.946 101.938 39.1392C102.006 39.3286 102.203 39.5824 102.219 39.7491C102.23 39.9158 102.222 40.0181 102.219 40.2416C102.211 40.4651 102.268 40.8287 102.306 40.9916C102.306 40.9916 103.001 41.4955 103.149 41.6508C103.297 41.8061 103.692 42.1546 103.905 42.4425C104.117 42.7342 104.216 42.9236 104.216 42.9236C104.216 42.9236 104.216 42.613 104.318 42.3099C104.417 42.0069 104.569 41.8515 104.554 41.503C104.539 41.1545 104.596 40.8401 104.683 40.734L104.77 40.628C104.77 40.628 104.193 39.6771 103.836 39.3438C103.483 39.0066 102.819 38.3361 102.636 37.999C102.526 37.7982 102.184 37.3702 102.26 37.1201C102.333 36.8928 102.651 36.836 102.834 36.9572L102.826 36.9535Z" fill="#1A1A18"/>
<path d="M101.155 37.2188C101.155 37.2188 100.745 37.6544 100.787 37.859C100.833 38.0635 100.787 38.4082 100.985 38.7189C101.182 39.0295 101.497 39.5523 101.459 39.825C101.421 40.094 101.315 40.5485 101.315 40.5485C101.315 40.5485 101.334 40.5902 101.603 40.719C101.873 40.844 101.998 40.9539 101.998 40.9539C101.998 40.9539 101.968 40.5713 101.957 40.2606C101.945 39.95 102.036 39.8402 101.828 39.3515C101.615 38.8666 101.501 38.5181 101.383 38.2719C101.266 38.0294 101.163 37.8589 101.212 37.5445C101.258 37.2301 101.155 37.2225 101.155 37.2225V37.2188Z" fill="#1A1A18"/>
<path d="M100.586 37.8476C100.586 37.8476 100.328 37.84 100.199 37.8665C100.069 37.893 99.9441 38.1127 99.9897 38.3438C100.039 38.5787 100.012 38.8325 100.009 39.1318C100.005 39.431 99.9327 39.8364 100.035 40.0068L100.138 40.1773C100.138 40.1773 100.388 40.2606 100.578 40.2871C100.768 40.3175 100.886 40.3667 101.007 40.4159L101.129 40.4652C101.129 40.4652 101.231 40.2796 101.228 39.8932C101.228 39.5068 101.091 39.2492 100.874 38.8666C100.658 38.484 100.601 38.3552 100.628 38.1279C100.654 37.9044 100.647 37.8135 100.647 37.8135L100.593 37.8476H100.586Z" fill="#1A1A18"/>
<path d="M99.8264 39.162C99.8264 39.162 99.7885 39.4309 99.7733 39.6128C99.7581 39.7908 99.7277 39.9575 99.8227 40.0674L99.9176 40.181C99.9176 40.181 99.7315 40.3742 99.5493 40.4348C99.367 40.4954 99.1771 40.628 99.0708 40.7568C98.9645 40.8856 98.8544 41.1167 98.8316 41.2076C98.8088 41.2985 98.7595 41.3932 98.7595 41.3932C98.7595 41.3932 98.5354 41.3061 98.3949 41.3478C98.2544 41.3894 98.2127 41.3288 98.2127 41.3288C98.2127 41.3288 98.1026 41.3137 98.1177 41.1015C98.1291 40.8932 98.2582 40.8667 98.2431 40.6886C98.2279 40.5144 98.262 40.4045 98.1671 40.2947L98.0722 40.1848C98.0722 40.1848 98.0646 40.1052 98.1861 40.0825L98.3076 40.0598C98.3076 40.0598 98.2127 39.9499 98.2848 39.7946C98.357 39.6393 98.3797 39.7113 98.5468 39.6658C98.7177 39.6241 98.805 39.4802 98.9493 39.4385C99.0898 39.3969 99.029 39.537 99.2911 39.4082C99.5531 39.2832 99.8189 39.1582 99.8189 39.1582L99.8264 39.162Z" fill="#1A1A18"/>
<path d="M98.0342 40.5599C98.0342 40.5599 97.7532 40.6698 97.6697 40.7077C97.5861 40.7456 97.6165 40.7721 97.6241 40.8592C97.6317 40.9463 97.6659 41.0335 97.5671 41.0562C97.4684 41.0789 97.476 41.1698 97.5406 41.2532C97.6051 41.3365 97.7152 41.4918 97.6545 41.6017C97.5899 41.7115 97.4646 41.7646 97.4912 41.9275L97.5178 42.0904L97.6203 41.9616C97.6203 41.9616 97.6355 41.9767 97.6924 41.7494C97.7456 41.5221 97.7266 41.4805 97.8519 41.4236L97.9772 41.3668C97.9772 41.3668 97.9772 41.2342 97.9658 41.0259C97.9506 40.8175 97.9924 40.8024 98.038 40.6774L98.0835 40.5562H98.0266L98.0342 40.5599Z" fill="#1A1A18"/>
<path fill-rule="evenodd" clip-rule="evenodd" d="M106.073 45.0939C106.464 44.4461 106.756 43.859 107.246 43.3779C107.884 42.7528 108.537 42.7452 109.221 42.1543C109.107 42.6998 109.015 43.34 108.617 43.7832C108.059 44.4007 107.071 44.3363 106.502 44.7757C107.026 44.3249 107.998 44.181 108.226 43.2188C107.443 43.4726 106.707 44.1696 106.073 45.0939Z" fill="#1A1A18"/>
<path fill-rule="evenodd" clip-rule="evenodd" d="M105.351 45.7568C104.603 46.8819 104.045 47.9085 103.141 48.7268C101.96 49.795 100.791 49.7571 99.5341 50.7686C99.7733 49.8064 99.9821 48.6661 100.723 47.9047C101.763 46.8402 103.517 47.0334 104.561 46.291C103.593 47.0524 101.85 47.2456 101.376 48.9427C102.792 48.5487 104.151 47.3592 105.344 45.7606L105.351 45.7568Z" fill="#1A1A18"/>
<path fill-rule="evenodd" clip-rule="evenodd" d="M121.58 44.6698C121.189 44.5448 120.866 44.4047 120.494 44.3819C120.012 44.3554 119.731 44.5941 119.241 44.5941C119.477 44.7797 119.739 45.0183 120.057 45.0562C120.506 45.1093 120.897 44.7191 121.288 44.6926C120.912 44.7001 120.452 44.9956 120.023 44.6774C120.441 44.4956 120.992 44.5145 121.576 44.6698H121.58Z" fill="#1A1A18"/>
<path fill-rule="evenodd" clip-rule="evenodd" d="M121.117 44.7114C120.984 44.4387 120.889 44.1925 120.711 43.9803C120.479 43.7076 120.217 43.6773 119.966 43.4121C119.993 43.6356 120.004 43.8932 120.149 44.0864C120.35 44.3554 120.745 44.3667 120.957 44.5675C120.764 44.3667 120.38 44.272 120.323 43.8781C120.627 44.0106 120.897 44.3175 121.117 44.7114Z" fill="#1A1A18"/>
<path d="M124.743 46.3933C124.743 46.3933 124.747 46.6093 124.584 46.6471C124.417 46.685 124.215 46.6282 124.124 46.5752C124.033 46.5221 123.995 46.5411 123.877 46.4994C123.76 46.454 123.752 46.4691 123.672 46.4047C123.593 46.3403 123.558 46.3214 123.422 46.3403C123.281 46.3555 123.015 46.3403 122.905 46.2873C122.795 46.2342 122.75 46.1244 122.621 46.0524C122.472 45.9691 122.214 45.8706 122.154 45.6887C122.131 45.6243 122.154 45.5637 122.146 45.4993C122.435 45.5675 122.617 45.9009 122.875 46.0145C123.088 46.1092 123.369 46.2305 123.6 46.238C123.202 46.1509 123.202 46.1206 123.027 46.0562C122.909 46.0145 122.753 45.9085 122.647 45.8213C122.537 45.7266 122.336 45.4766 122.138 45.4122C122.26 45.4122 122.575 45.6092 122.685 45.6243C123.023 45.6698 123.847 46.3024 124.139 46.4085C123.714 46.1585 122.583 45.3781 122.15 45.3478C122.37 45.363 122.518 45.2417 123.186 45.3516C122.943 45.2569 122.442 45.2152 122.229 45.2493C122.047 45.2796 122.002 45.166 121.876 45.0637C121.876 45.0637 122.362 44.8705 122.598 44.9576C122.833 45.0448 123.202 45.1736 123.46 45.4008C123.714 45.6243 124.056 45.9842 124.177 46.1054C124.295 46.2267 124.379 46.2645 124.531 46.3138C124.686 46.363 124.755 46.4009 124.755 46.4009L124.743 46.3933Z" fill="#1A1A18"/>
<path d="M121.74 45.0637C121.967 45.4728 121.926 46.2986 121.789 46.704C121.85 46.2835 121.892 45.541 121.649 45.0826C121.516 45.272 121.5 45.8857 121.466 46.1206C121.424 46.4199 121.337 47.1093 121.28 47.401C121.235 47.6472 121.254 47.5222 121.231 47.7381C121.39 46.9464 121.405 45.8327 121.523 45.0296C121.466 45.4311 121.17 45.791 121.056 46.1736C120.938 46.5714 120.851 47.1131 120.749 47.6548C120.961 45.8062 121.242 45.291 121.417 45.0031C121.049 45.3326 120.9 45.5334 120.749 45.7493C120.597 45.9653 120.411 46.3327 120.213 46.7987C120.335 46.4577 120.612 45.863 120.711 45.7077C120.87 45.4577 121.075 45.1546 121.2 44.9766C120.855 45.2531 120.357 45.9804 120.194 46.4426C120.088 46.7418 120.004 47.0108 120.164 47.151C120.323 47.2873 120.365 47.2873 120.392 47.3783C120.418 47.473 120.456 47.5184 120.498 47.5146C120.536 47.5146 120.559 47.5146 120.608 47.5828C120.657 47.651 120.76 47.7116 120.828 47.7192C120.897 47.7306 120.908 47.7078 120.95 47.7381C120.992 47.7684 121.041 47.8177 121.147 47.8404C121.254 47.8669 121.276 47.829 121.299 47.8215C121.322 47.8177 121.387 47.8253 121.485 47.776C121.588 47.7268 121.66 47.5942 121.743 47.4578C121.823 47.3252 121.979 46.9009 122.013 46.5183C122.043 46.1357 122.074 45.8327 122.036 45.6622C122.002 45.5183 121.952 45.1849 121.74 45.0485V45.0637Z" fill="#1A1A18"/>
<path d="M120.001 46.7876C120.001 46.7876 119.906 46.8255 119.83 46.8066C119.754 46.7876 119.708 46.7801 119.632 46.799C119.556 46.8179 119.496 46.8255 119.473 46.7649C119.45 46.7081 119.465 46.6361 119.446 46.6096C119.427 46.5831 119.42 46.5679 119.469 46.5073C119.514 46.4467 119.72 46.2118 119.788 46.1361C119.856 46.0641 120.016 45.8217 120.156 45.7156C120.297 45.6095 120.392 45.5754 120.471 45.5148C120.555 45.4504 120.6 45.4428 120.692 45.3595C120.783 45.2762 120.84 45.2383 120.84 45.2383C120.84 45.2383 120.562 45.53 120.449 45.7421C120.338 45.9542 120.19 46.1664 120.118 46.352C120.046 46.5376 120.008 46.7157 120.008 46.7157L119.997 46.7914L120.001 46.7876Z" fill="#1A1A18"/>
<path d="M119.245 46.6738C119.245 46.6738 119.101 46.8215 119.01 46.867C118.922 46.9124 118.858 46.8935 118.816 46.8442C118.774 46.795 118.732 46.7306 118.751 46.6738L118.766 46.6169C118.766 46.6169 118.778 46.6624 118.812 46.6397C118.846 46.6207 118.899 46.4919 118.964 46.3745C119.032 46.2571 119.15 46.0904 119.347 45.8972C119.552 45.6964 119.868 45.4767 120.217 45.2835C120.323 45.2229 120.657 45.06 120.965 45.0032C120.881 45.0411 120.589 45.1926 120.475 45.2797C120.357 45.3706 120.183 45.4464 120.046 45.5184C119.765 45.6699 119.473 45.829 119.366 46.1889C119.507 45.7798 119.909 45.6093 120.293 45.4161C120.563 45.2797 120.771 45.0865 121.064 44.9956C120.912 45.1206 120.714 45.204 120.551 45.3138C120.316 45.4729 120.103 45.5676 119.765 45.9692C119.427 46.3669 119.241 46.6813 119.241 46.6813L119.245 46.6738Z" fill="#1A1A18"/>
<path d="M120.878 47.8332C120.878 47.8332 120.726 48.015 120.646 48.0112C120.563 48.0112 120.483 47.9847 120.464 47.9469L120.445 47.9128C120.445 47.9128 120.43 47.9203 120.373 47.9165C120.316 47.9165 120.308 47.909 120.282 47.8521C120.255 47.7991 120.259 47.7537 120.228 47.7461C120.198 47.7385 120.152 47.7726 120.114 47.7574C120.076 47.7423 120.05 47.6893 120.035 47.6362C120.016 47.5832 120.012 47.5605 120.012 47.5605C120.012 47.5605 119.959 47.5377 119.917 47.5302C119.875 47.5226 119.83 47.515 119.811 47.462C119.792 47.4089 119.777 47.2006 119.784 47.1097C119.799 47.0188 119.795 46.9695 119.795 46.9695C119.795 46.9695 119.909 46.9695 119.947 46.9581L119.982 46.9468C119.982 46.9468 119.993 47.0832 120.02 47.1475C120.042 47.2119 120.183 47.318 120.232 47.3407C120.278 47.3635 120.301 47.4468 120.331 47.5074C120.361 47.5718 120.452 47.6286 120.502 47.6362C120.551 47.6438 120.559 47.7044 120.635 47.7574C120.711 47.8105 120.73 47.8408 120.787 47.8332C120.847 47.8256 120.878 47.8332 120.878 47.8332Z" fill="#1A1A18"/>
<path d="M123.277 48.0942C123.277 48.0942 123.228 48.2647 123.137 48.3063C123.046 48.348 122.966 48.3707 122.883 48.3556C122.799 48.3442 122.666 48.2419 122.628 48.1245C122.59 48.0071 122.556 47.9048 122.556 47.9048C122.556 47.9048 122.48 47.7571 122.453 47.6813C122.423 47.6055 122.419 47.4729 122.381 47.4199C122.343 47.3669 122.313 47.3366 122.252 47.2722C122.191 47.2078 122.116 47.0828 122.085 47.0222C122.085 47.0222 122.165 46.6812 122.169 46.5941C122.172 46.507 122.203 46.2948 122.191 46.1471C122.18 46.0031 122.161 45.916 122.161 45.916C122.161 45.916 122.241 46.0069 122.351 46.0751C122.457 46.1395 122.545 46.1433 122.628 46.2532C122.715 46.363 122.81 46.4426 122.864 46.4501L122.917 46.4577C122.917 46.4577 122.985 46.9009 122.962 47.1017C122.943 47.2987 122.913 47.6851 122.943 47.8366C122.962 47.9275 122.966 48.151 123.057 48.2041C123.137 48.2533 123.247 48.1813 123.274 48.098L123.277 48.0942Z" fill="#1A1A18"/>
<path d="M122.708 48.4694C122.708 48.4694 122.472 48.4505 122.434 48.3747C122.397 48.299 122.294 48.2081 122.275 48.0603C122.256 47.9126 122.214 47.6701 122.135 47.5982C122.055 47.5262 121.907 47.4201 121.907 47.4201C121.907 47.4201 121.903 47.4012 121.948 47.2913C121.998 47.1815 122.009 47.1133 122.009 47.1133C122.009 47.1133 122.097 47.2383 122.176 47.333C122.252 47.4315 122.309 47.4391 122.37 47.6436C122.431 47.8482 122.484 47.9846 122.51 48.0906C122.537 48.1967 122.548 48.2762 122.647 48.3558C122.742 48.4391 122.712 48.4694 122.712 48.4694H122.708Z" fill="#1A1A18"/>
<path d="M122.374 48.4352C122.374 48.4352 122.298 48.5072 122.252 48.5375C122.207 48.564 122.112 48.5337 122.066 48.4503C122.021 48.367 121.948 48.295 121.869 48.2079C121.789 48.1208 121.664 48.0147 121.652 47.9352L121.637 47.8556C121.637 47.8556 121.69 47.7609 121.74 47.7003C121.789 47.6397 121.812 47.5904 121.838 47.545L121.861 47.4995C121.861 47.4995 121.941 47.526 122.04 47.6435C122.138 47.7609 122.165 47.8745 122.195 48.0488C122.229 48.223 122.245 48.2761 122.309 48.3405C122.374 48.4011 122.397 48.4314 122.397 48.4314H122.37L122.374 48.4352Z" fill="#1A1A18"/>
<path d="M121.808 48.2458C121.808 48.2458 121.728 48.1738 121.675 48.1245C121.626 48.0753 121.573 48.0336 121.573 47.973V47.9124C121.573 47.9124 121.466 47.9048 121.398 47.9351C121.326 47.9654 121.235 47.9768 121.17 47.9692C121.105 47.9579 121.011 47.92 120.98 47.8973C120.95 47.8745 120.912 47.8594 120.912 47.8594C120.912 47.8594 120.866 47.9465 120.813 47.973C120.76 47.9995 120.764 48.0298 120.764 48.0298C120.764 48.0298 120.733 48.0639 120.794 48.1245C120.851 48.1852 120.897 48.1549 120.938 48.2155C120.98 48.2723 121.018 48.295 121.018 48.3556V48.4162C121.018 48.4162 121.033 48.4428 121.079 48.4162L121.121 48.3897C121.121 48.3897 121.121 48.4503 121.181 48.4768C121.242 48.5034 121.231 48.4768 121.295 48.4428C121.356 48.4087 121.421 48.4276 121.474 48.4011C121.527 48.3746 121.474 48.3518 121.584 48.3177C121.694 48.2837 121.808 48.2496 121.808 48.2496V48.2458Z" fill="#1A1A18"/>
<path d="M120.908 48.3141C120.908 48.3141 120.794 48.3557 120.76 48.3671C120.726 48.3785 120.726 48.3633 120.707 48.333C120.684 48.3065 120.673 48.2686 120.638 48.2875C120.604 48.3065 120.581 48.28 120.581 48.2345C120.581 48.1928 120.574 48.1133 120.528 48.0981C120.479 48.083 120.43 48.0981 120.395 48.0451L120.361 47.9883L120.426 47.9996C120.426 47.9996 120.426 47.9921 120.502 48.0451C120.578 48.0981 120.582 48.1171 120.635 48.0981L120.688 48.083C120.688 48.083 120.722 48.1209 120.771 48.1891C120.821 48.2572 120.836 48.2497 120.881 48.2724L120.927 48.2989L120.908 48.3141Z" fill="#1A1A18"/>
<path fill-rule="evenodd" clip-rule="evenodd" d="M122.172 44.7493C122.457 44.8365 122.696 44.935 122.966 44.9463C123.319 44.9615 123.517 44.7834 123.877 44.7758C123.703 44.6433 123.509 44.4728 123.277 44.4501C122.951 44.416 122.67 44.7039 122.385 44.7266C122.659 44.719 122.989 44.4993 123.304 44.7266C123 44.863 122.602 44.8554 122.172 44.7493Z" fill="#1A1A18"/>
<path fill-rule="evenodd" clip-rule="evenodd" d="M125.024 43.5976C124.215 42.5862 121.846 43.0521 121.823 44.7909C121.713 44.5068 121.667 44.2113 121.812 43.9613C121.47 44.0333 121.003 44.0598 120.699 43.8628C120.392 43.6658 120.016 43.109 120.673 43.0332C120.673 42.2718 121.85 42.2415 121.816 43.1241C121.819 43.1279 121.717 43.1999 121.713 43.2037C121.698 42.5066 120.893 42.59 120.912 43.1885C120.931 43.9158 121.679 43.7378 122.013 43.537C122.943 42.9802 124.052 42.5218 124.975 43.4802L125.024 43.5976Z" fill="#1A1A18"/>
<path fill-rule="evenodd" clip-rule="evenodd" d="M125.199 43.6773C124.948 43.2341 124.77 42.8363 124.451 42.5068C124.041 42.0749 123.6 42.056 123.16 41.6431C123.224 42.0105 123.27 42.4424 123.528 42.7454C123.889 43.1697 124.549 43.147 124.918 43.4576C124.576 43.147 123.931 43.0257 123.798 42.378C124.314 42.5636 124.792 43.0485 125.195 43.6773H125.199Z" fill="#1A1A18"/>
<path fill-rule="evenodd" clip-rule="evenodd" d="M128.362 38.4307C127.557 41.2301 128.741 44.0977 131.688 44.988C134.232 45.7607 136.583 45.1887 138.348 43.7341C137.247 45.2759 134.954 45.6812 133.173 45.9956C130.8 46.4161 128.388 45.1054 126.915 43.2189C124.8 40.5066 122.89 31.6726 118.022 34.2864L118.493 34.097C123.004 32.6954 124.739 41.6392 126.854 44.3553C128.324 46.2418 131.027 47.6018 133.404 47.1813C135.645 46.7873 138.272 46.4161 138.751 43.6621L138.796 43.3401C139.244 42.9045 139.651 42.412 140.004 41.8627L139.719 41.9423C139.461 42.0446 139.199 42.1847 138.933 42.3476V42.3135C138.933 42.3135 138.933 42.3363 138.933 42.3476C137.877 42.9916 136.761 43.9652 135.55 44.1167C134.464 44.2531 133.617 44.3061 132.527 44.2038C130.488 44.0068 128.688 42.5446 128.893 40.3437C129.057 38.5632 130.45 37.548 132.072 38.3738C133.404 39.0519 134.111 41.2377 132.284 41.7036C134.293 42.3022 135.132 39.4118 134.285 37.995C132.903 35.6805 129.11 35.8282 128.362 38.4307ZM123.209 40.2073H123.217C123.046 39.9118 122.864 39.6732 122.677 39.48C121.728 38.2072 120.824 37.1427 119.913 36.6161C118.432 35.76 117.149 35.4001 116.074 35.3244C116.386 35.116 116.803 35.2865 117.156 35.2562C117.923 35.188 118.098 34.6501 118.611 34.1652C118.52 34.2523 118.178 34.4341 118.056 34.4531C117.927 34.4758 117.844 34.4152 117.707 34.4379C117.339 34.4985 116.974 34.7334 116.632 34.9569C117.134 34.347 118.129 33.7902 118.945 33.8243C117.904 33.4303 116.344 34.2296 115.877 35.313C114.495 35.26 113.473 35.688 112.843 36.135C110.906 37.5063 109.744 40.7642 110.705 43.0901C111.673 45.435 113.815 47.204 116.207 46.5411C116.758 46.56 117.13 46.8783 117.21 47.1586C117.324 47.5488 117.175 47.9389 116.913 48.0071C116.651 48.0943 116.572 47.9995 116.56 47.9048C116.538 47.8139 116.625 47.8139 116.697 47.8177C116.837 47.8367 116.993 47.6662 116.932 47.4465C116.864 47.2343 116.701 47.1283 116.439 47.2154C116.188 47.295 116.089 47.5791 116.15 47.8177C116.226 48.0753 116.534 48.314 116.948 48.1814C117.354 48.0564 117.532 47.5525 117.411 47.1131C117.335 46.8479 117.058 46.5297 116.568 46.4313C116.769 46.3555 116.97 46.2646 117.172 46.1547C118.744 45.291 120.103 42.5787 118.459 40.8513L118.702 41.1619C119.568 43.0749 118.766 44.7758 117.506 45.6963C118.55 44.4879 118.148 42.2188 116.663 41.4839H116.655C118.17 42.2567 118.539 44.6319 117.369 45.7986C117.274 45.863 117.179 45.9199 117.077 45.9767C114.293 47.5185 111.73 45.4084 110.876 42.8742C110.105 40.6013 111.119 37.7564 112.961 36.4532C113.549 36.0365 114.51 35.5895 115.801 35.5744C115.778 35.6653 115.759 35.7562 115.755 35.8471C115.789 35.7373 115.827 35.6501 115.869 35.5744C116.94 35.5744 118.235 35.8774 119.735 36.7449C120.05 36.9268 120.365 37.1768 120.68 37.4798C119.659 36.7828 118.428 36.3396 117.244 36.1653C115.406 35.8964 112.065 37.3132 112.467 40.2793C112.425 39.0822 112.63 38.5405 113.412 37.6806C114.031 36.9987 114.836 36.6313 115.714 36.4191C117.316 36.0328 118.527 36.5858 119.925 37.4041C120.6 37.798 121.288 38.2678 121.869 38.836C121.899 38.8777 121.933 38.9155 121.96 38.9572C121.402 38.692 120.885 38.7678 120.585 38.9572C120.042 39.3133 119.761 40.0406 120.084 40.5861C120.411 41.1506 120.969 41.196 121.295 40.9915C121.584 40.7907 121.747 40.3816 121.55 40.0444C121.345 39.6845 121.064 39.6429 120.79 39.802C120.517 39.98 120.521 40.3247 120.695 40.4422C120.783 40.5141 120.87 40.6013 120.764 40.677C120.661 40.7717 120.487 40.7945 120.285 40.4384C120.065 40.105 120.266 39.5292 120.756 39.2186C121.09 39.0027 121.751 39.014 122.351 39.48C125.605 43.9386 129.406 51.2119 137.084 47.0942L138.003 45.6054C130.716 51.4581 126.611 44.9274 123.213 40.2225L123.209 40.2073ZM119.101 41.6847C119.15 40.4194 117.586 38.9648 116.374 39.2603C117.255 39.2603 117.115 39.9611 117.301 40.4232C117.586 41.1278 118.113 41.1354 118.698 41.4726C118.592 41.4119 118.334 41.143 118.28 41.0331C118.223 40.9195 118.25 40.821 118.193 40.6998C118.03 40.3702 117.715 40.0937 117.418 39.8399C118.106 40.1315 118.892 40.9043 119.101 41.6847ZM114.4 41.7718C114.324 41.8779 114.274 42.0029 114.255 42.1279C114.225 42.2681 114.233 42.4082 114.301 42.5219L114.316 42.537C114.354 42.6052 114.411 42.6658 114.483 42.7113C114.491 42.7113 114.495 42.7189 114.498 42.7226C114.498 42.7226 114.517 42.7302 114.529 42.734L114.563 42.7492C114.536 42.7378 114.514 42.7189 114.491 42.7037L114.385 42.5976C114.385 42.5976 114.377 42.5863 114.373 42.5825C114.316 42.465 114.369 42.3363 114.51 42.2681C114.286 42.0521 114.574 41.6203 114.764 41.4688C114.764 41.4688 114.757 41.4688 114.757 41.4726C115.3 41.0975 116.082 41.1884 116.651 41.4726C116.644 41.4688 116.636 41.4612 116.629 41.4574C115.93 41.1127 114.92 41.0483 114.407 41.7718H114.4ZM114.764 41.4688C114.772 41.465 114.772 41.4688 114.764 41.4688V41.4688ZM112.463 40.3172C112.463 40.3172 112.459 40.2793 112.456 40.2603C112.456 40.2869 112.456 40.3096 112.456 40.3361V40.3172H112.463ZM112.683 40.0255C112.661 40.1543 112.585 40.2149 112.562 40.3475C112.501 40.7111 112.592 41.1278 112.687 41.5142C112.304 40.8589 112.121 39.7527 112.406 38.9951C111.632 39.9762 112.046 42.109 113.185 42.6204C112.478 42.0787 112.995 41.6013 113.113 41.1165C113.291 40.3778 112.87 40.0444 112.6 39.4156C112.649 39.5292 112.702 39.9043 112.68 40.0255H112.683Z" fill="#1A1A18"/>
<path fill-rule="evenodd" clip-rule="evenodd" d="M115.167 36.6693C113.993 37.8664 110.994 36.9534 111.184 34.707C111.005 35.0593 110.91 35.4344 111.066 35.7753C110.637 35.6389 110.033 35.5442 109.615 35.7564C109.19 35.9723 108.643 36.639 109.479 36.8246C109.384 37.8057 110.903 38.0027 110.963 36.8549C110.971 36.8473 110.846 36.7451 110.842 36.7375C110.736 37.6353 109.707 37.4231 109.801 36.6504C109.915 35.7109 110.857 36.0442 111.267 36.3473C112.399 37.1883 113.773 37.927 115.087 36.8095L115.167 36.6655V36.6693Z" fill="#1A1A18"/>
<path fill-rule="evenodd" clip-rule="evenodd" d="M42.6303 9.63673C44.939 12.1521 51.1017 10.4891 50.8587 5.90918C51.2004 6.64029 51.3751 7.41308 51.0296 8.08737C51.9143 7.83735 53.1483 7.68583 53.9837 8.14419C54.8305 8.61014 55.9089 10.0042 54.1964 10.3224C54.3255 12.3263 51.2308 12.6256 51.17 10.2921C51.1549 10.2769 51.4169 10.0799 51.4245 10.0648C51.5801 11.902 53.6913 11.5308 53.5432 9.95872C53.3686 8.0457 51.4283 8.6556 50.5815 9.24655C48.2273 10.883 45.3794 12.296 42.7822 9.93599L42.6303 9.64052V9.63673Z" fill="#1A1A18"/>
<path fill-rule="evenodd" clip-rule="evenodd" d="M27.4798 5.23517C28.1785 2.74256 32.8337 1.66673 34.1969 4.80332C34.1817 4.19722 34.0374 3.62142 33.5856 3.29185C34.2577 3.14411 35.131 2.81075 35.5335 2.20843C35.9436 1.59854 36.1942 0.287835 34.9487 0.681803C34.3678 -0.697087 32.2072 0.200707 32.9477 1.77658C32.9439 1.79173 33.1831 1.82962 33.1907 1.83719C32.6819 0.560582 34.2083 0.0567569 34.6374 1.15911C35.1576 2.49633 33.6653 2.77666 32.9059 2.68195C30.7947 2.42436 28.4291 2.49254 27.4874 4.98515V5.23517H27.4798Z" fill="#1A1A18"/>
<path fill-rule="evenodd" clip-rule="evenodd" d="M15.9289 12.4628C18.0098 13.5765 18.1161 18.1526 15.0898 18.8648C15.6328 18.9633 16.1644 18.9329 16.5403 18.5655C16.5479 19.2246 16.6846 20.1073 17.144 20.596C17.6111 21.0922 18.7236 21.5695 18.6021 20.3232C19.9273 20.0277 19.5286 17.8268 17.9984 18.2359C17.987 18.2284 17.9072 18.4481 17.8997 18.4556C19.1223 18.2094 19.2894 19.7398 18.2376 19.9406C16.9618 20.1868 16.9845 18.7322 17.2048 18.0314C17.8161 16.088 18.1844 13.8492 16.153 12.5082L15.9327 12.459L15.9289 12.4628Z" fill="#1A1A18"/>
<path fill-rule="evenodd" clip-rule="evenodd" d="M19.6273 20.9142C19.9918 20.5354 20.2766 20.1831 20.6829 19.933C21.2107 19.611 21.6588 19.7095 22.2132 19.4141C22.0537 19.7664 21.8942 20.1906 21.5563 20.4255C21.0816 20.7589 20.4209 20.5543 19.9691 20.7626C20.3943 20.5429 21.0778 20.596 21.3778 19.9785C20.8044 20.024 20.2007 20.3838 19.6273 20.9104V20.9142Z" fill="#1A1A18"/>
<path fill-rule="evenodd" clip-rule="evenodd" d="M20.1703 20.6795C20.1665 20.2931 20.1323 19.9598 20.2083 19.615C20.3146 19.1642 20.5918 18.9786 20.7247 18.5278C20.8234 18.793 20.9563 19.0923 20.9031 19.3953C20.831 19.8196 20.3905 20.0696 20.2652 20.4219C20.3677 20.081 20.7437 19.74 20.5842 19.2665C20.3146 19.5961 20.1893 20.1037 20.1665 20.6795H20.1703Z" fill="#1A1A18"/>
<path d="M17.0491 24.763C17.0491 24.763 17.1668 25.0131 17.3756 24.9524C17.5845 24.8956 17.7781 24.71 17.8541 24.5964C17.9262 24.4827 17.9832 24.4789 18.0895 24.3615C18.1958 24.2403 18.2148 24.2554 18.2679 24.1304C18.3211 24.0092 18.3477 23.9675 18.5148 23.9031C18.6818 23.8387 18.9704 23.6569 19.0653 23.5281C19.1603 23.3993 19.1489 23.2478 19.2514 23.0925C19.3691 22.9106 19.6045 22.6417 19.5704 22.3992C19.559 22.3121 19.502 22.2553 19.4716 22.1833C19.1831 22.4333 19.1717 22.9182 18.9438 23.2023C18.7578 23.4334 18.511 23.744 18.2566 23.8918C18.6553 23.5546 18.6363 23.5167 18.7957 23.3425C18.9021 23.2213 19.0198 23.0091 19.0881 22.85C19.1565 22.6796 19.24 22.2742 19.4261 22.081C19.2894 22.1568 19.0464 22.5659 18.9324 22.6492C18.5793 22.9068 18.0135 24.1153 17.7439 24.407C18.0781 23.8652 18.9097 22.3121 19.3767 22.0128C19.1375 22.1606 18.9021 22.1189 18.2148 22.6455C18.4312 22.3917 18.9704 22.0431 19.2324 21.9522C19.4527 21.8765 19.4375 21.7211 19.5248 21.5317C19.5248 21.5317 18.8679 21.6075 18.6553 21.8462C18.4388 22.0848 18.0971 22.4598 17.9376 22.8652C17.7781 23.2705 17.5997 23.8842 17.5313 24.0887C17.4668 24.2971 17.3984 24.388 17.2541 24.5357C17.1098 24.6835 17.0529 24.7668 17.0529 24.7668L17.0491 24.763Z" fill="#1A1A18"/>
<path d="M19.6691 21.4523C19.6463 22.0471 20.1627 22.9525 20.5462 23.3237C20.2386 22.8881 19.7716 22.0774 19.783 21.4182C20.0412 21.5546 20.4095 22.2327 20.5766 22.4751C20.793 22.7858 21.2866 23.5055 21.5145 23.8048C21.7043 24.0548 21.617 23.926 21.7613 24.1533C21.1348 23.3654 20.4855 22.1191 19.8969 21.2857C20.1893 21.7024 20.7247 21.9297 21.0702 22.2895C21.4271 22.6646 21.8334 23.2176 22.2549 23.7669C20.9677 21.816 20.3601 21.4107 19.9994 21.191C20.5994 21.3387 20.8804 21.4751 21.1727 21.6266C21.4651 21.7781 21.8828 22.0774 22.3726 22.4827C22.0385 22.1721 21.393 21.6721 21.1955 21.5584C20.8766 21.3766 20.4741 21.1569 20.231 21.0356C20.7778 21.1341 21.7499 21.6531 22.1942 22.0736C22.4827 22.3463 22.7334 22.6002 22.6308 22.8502C22.5283 23.104 22.4827 23.1229 22.5055 23.2479C22.5283 23.3654 22.5093 23.4449 22.4638 23.4639C22.4182 23.4866 22.3916 23.4979 22.3764 23.6078C22.3612 23.7177 22.2777 23.8389 22.2056 23.8957C22.1334 23.9487 22.1106 23.9298 22.0765 23.9904C22.0461 24.051 22.0195 24.1344 21.9132 24.2253C21.8069 24.3162 21.7613 24.2897 21.7309 24.2973C21.7005 24.3086 21.636 24.3541 21.4955 24.3616C21.355 24.3692 21.1917 24.2632 21.0284 24.1609C20.8576 24.0586 20.4437 23.6798 20.1931 23.2669C19.9387 22.854 19.7336 22.532 19.6843 22.3198C19.6387 22.138 19.5096 21.7327 19.6691 21.4523Z" fill="#1A1A18"/>
<path d="M22.6005 22.3388C22.6005 22.3388 22.7258 22.3237 22.8055 22.2555C22.8815 22.1873 22.927 22.1532 23.0219 22.1267C23.1169 22.1002 23.189 22.0699 23.1814 21.9941C23.1738 21.9183 23.1169 21.8426 23.1245 21.8009C23.1321 21.7592 23.1245 21.7403 23.0409 21.6948C22.9536 21.6532 22.5929 21.513 22.4714 21.4713C22.3537 21.4335 22.0347 21.2592 21.8183 21.2213C21.598 21.1872 21.4765 21.2062 21.3474 21.1872C21.2183 21.1645 21.1614 21.1834 21.0095 21.1456C20.8576 21.1077 20.774 21.1001 20.774 21.1001C20.774 21.1001 21.2525 21.263 21.4955 21.4297C21.7385 21.6001 22.0271 21.7479 22.2132 21.9146C22.3992 22.0812 22.5435 22.2555 22.5435 22.2555L22.5967 22.3312L22.6005 22.3388Z" fill="#1A1A18"/>
<path d="M23.3865 21.7553C23.3865 21.7553 23.6333 21.8348 23.7586 21.8311C23.8839 21.8311 23.9447 21.7704 23.9637 21.6871C23.9827 21.6076 23.9903 21.5091 23.9409 21.456L23.8915 21.403C23.8915 21.403 23.9029 21.4598 23.8536 21.456C23.8042 21.456 23.6713 21.3424 23.5308 21.2515C23.3903 21.1606 23.1625 21.0431 22.8321 20.9484C22.4866 20.8461 22.0082 20.7893 21.5031 20.7817C21.3513 20.7817 20.8842 20.7969 20.5007 20.9181C20.6146 20.9067 21.0323 20.903 21.2108 20.9333C21.393 20.9636 21.6322 20.9408 21.8297 20.9408C22.2322 20.9408 22.6499 20.9408 22.9726 21.2818C22.5815 20.9067 22.0347 20.9598 21.4955 20.9711C21.1158 20.9787 20.7703 20.8916 20.3868 20.9636C20.626 21.0128 20.8956 20.9863 21.1424 21.009C21.4993 21.0431 21.7917 21.0242 22.3955 21.2666C23.003 21.5129 23.3865 21.7477 23.3865 21.7477V21.7553Z" fill="#1A1A18"/>
<path d="M22.2094 24.0434C22.2094 24.0434 22.4827 24.1571 22.5701 24.1003C22.6574 24.0472 22.7372 23.9715 22.7372 23.9184V23.8692C22.7372 23.8692 22.7599 23.8654 22.8245 23.8313C22.889 23.7972 22.8928 23.7821 22.889 23.7063C22.889 23.6305 22.8587 23.5813 22.889 23.5548C22.9156 23.5283 22.9878 23.5396 23.0257 23.5017C23.0599 23.4601 23.0599 23.3843 23.0485 23.3161C23.0371 23.2441 23.0333 23.2176 23.0333 23.2176C23.0333 23.2176 23.0789 23.1608 23.1207 23.1305C23.1624 23.1002 23.2118 23.0623 23.2004 22.9903C23.189 22.9184 23.0941 22.6759 23.0257 22.5812C22.9574 22.4865 22.9308 22.4297 22.9308 22.4297C22.9308 22.4297 22.8017 22.4979 22.7561 22.5055L22.7106 22.513C22.7106 22.513 22.7751 22.6759 22.7827 22.7593C22.7941 22.8464 22.6954 23.0509 22.6574 23.104C22.6194 23.157 22.6422 23.2631 22.6422 23.354C22.6422 23.4449 22.5739 23.5623 22.5245 23.6002C22.4751 23.6381 22.5017 23.7101 22.4486 23.8162C22.3954 23.9222 22.3878 23.9677 22.3195 23.9942C22.2473 24.0207 22.2131 24.0472 22.2131 24.0472L22.2094 24.0434Z" fill="#1A1A18"/>
<path d="M19.6653 25.7861C19.6653 25.7861 19.8172 25.9452 19.9425 25.9376C20.0678 25.9301 20.1703 25.9035 20.2577 25.8391C20.345 25.7747 20.4361 25.5778 20.4134 25.4262C20.3906 25.2709 20.3716 25.1345 20.3716 25.1345C20.3716 25.1345 20.3716 24.9224 20.3602 24.8201C20.3488 24.7179 20.2805 24.5701 20.2919 24.4868C20.3032 24.4034 20.3222 24.3542 20.3526 24.2443C20.383 24.1345 20.3982 23.9489 20.3944 23.8617C20.3944 23.8617 20.1096 23.5246 20.0564 23.4299C20.0033 23.3352 19.8476 23.1155 19.7754 22.945C19.7033 22.7745 19.6767 22.6685 19.6767 22.6685C19.6767 22.6685 19.6387 22.82 19.5552 22.9601C19.4717 23.0965 19.3767 23.1533 19.3426 23.3276C19.3084 23.5019 19.2438 23.6496 19.1907 23.6913L19.1337 23.7329C19.1337 23.7329 19.3084 24.2746 19.4451 24.483C19.5818 24.6913 19.8324 25.1042 19.8818 25.2974C19.9121 25.4073 20.0336 25.6611 19.9653 25.7785C19.9045 25.8808 19.7413 25.8695 19.6653 25.7899V25.7861Z" fill="#1A1A18"/>
<path d="M20.5196 25.8617C20.5196 25.8617 20.774 25.6988 20.7778 25.5889C20.7778 25.4828 20.8424 25.3162 20.7778 25.1381C20.7171 24.9601 20.6222 24.6646 20.6715 24.5358C20.7209 24.407 20.8272 24.1949 20.8272 24.1949C20.8272 24.1949 20.8234 24.1721 20.7057 24.0774C20.588 23.9827 20.5386 23.9146 20.5386 23.9146C20.5386 23.9146 20.5082 24.1077 20.4779 24.2631C20.4475 24.4184 20.3905 24.4638 20.4361 24.729C20.4817 24.998 20.5006 25.1836 20.531 25.3162C20.5614 25.4525 20.5918 25.5472 20.531 25.6988C20.4703 25.8503 20.5196 25.8655 20.5196 25.8655V25.8617Z" fill="#1A1A18"/>
<path d="M20.8728 25.6231C20.8728 25.6231 21.0019 25.6572 21.0664 25.661C21.131 25.661 21.2221 25.5739 21.2221 25.4527C21.2259 25.3314 21.2677 25.2064 21.3057 25.0625C21.3436 24.9147 21.4234 24.7253 21.3968 24.6268L21.3664 24.5284C21.3664 24.5284 21.2525 24.4564 21.1614 24.4185C21.0702 24.3806 21.0171 24.3427 20.9677 24.3011L20.9145 24.2632C20.9145 24.2632 20.8424 24.3427 20.8006 24.5321C20.7551 24.7253 20.793 24.8655 20.8576 25.0814C20.9183 25.2973 20.9335 25.3693 20.8956 25.4754C20.8538 25.5853 20.85 25.6269 20.85 25.6269L20.8804 25.6156L20.8728 25.6231Z" fill="#1A1A18"/>
<path d="M21.4006 25.066C21.4006 25.066 21.4499 24.9372 21.4765 24.85C21.5031 24.7629 21.5411 24.6834 21.5069 24.619L21.4727 24.5508C21.4727 24.5508 21.5904 24.4788 21.6854 24.4712C21.7841 24.4636 21.8942 24.422 21.9588 24.3727C22.0271 24.3235 22.1068 24.2212 22.1258 24.1795C22.1486 24.1379 22.1828 24.0962 22.1828 24.0962C22.1828 24.0962 22.2853 24.1682 22.3574 24.1644C22.4334 24.1644 22.4448 24.1947 22.4448 24.1947C22.4448 24.1947 22.4979 24.2174 22.4676 24.3159C22.4372 24.4182 22.3688 24.4144 22.3574 24.5053C22.3461 24.5962 22.3157 24.6417 22.3499 24.7099L22.384 24.7743C22.384 24.7743 22.3802 24.8159 22.3157 24.8122H22.2511C22.2511 24.8122 22.2853 24.8766 22.2321 24.9409C22.1752 25.0091 22.1752 24.9713 22.0879 24.9713C22.0005 24.9713 21.936 25.0319 21.8638 25.0319C21.7879 25.0319 21.8372 24.975 21.6892 25.0016C21.5449 25.0319 21.4006 25.0584 21.4006 25.0584V25.066Z" fill="#1A1A18"/>
<path d="M22.4524 24.6C22.4524 24.6 22.6043 24.5772 22.6499 24.5697C22.6954 24.5621 22.684 24.5431 22.6878 24.5015C22.6954 24.456 22.6878 24.4106 22.741 24.4106C22.7904 24.4106 22.798 24.3651 22.7752 24.3159C22.7524 24.2666 22.7144 24.1757 22.76 24.1302C22.8056 24.0848 22.8739 24.0734 22.8777 23.9901V23.9067L22.8169 23.956C22.8169 23.956 22.8094 23.9484 22.76 24.0545C22.7068 24.1605 22.7106 24.1833 22.6423 24.1946L22.5739 24.206C22.5739 24.206 22.5549 24.2704 22.5398 24.3765C22.5246 24.4787 22.5018 24.4863 22.4638 24.5394L22.4258 24.5962H22.4562L22.4524 24.6Z" fill="#1A1A18"/>
<path fill-rule="evenodd" clip-rule="evenodd" d="M19.0084 21.3613C18.7388 21.6341 18.5262 21.8879 18.23 22.0621C17.8427 22.2932 17.5199 22.2137 17.1136 22.422C17.2314 22.1682 17.3529 21.8614 17.6035 21.6909C17.949 21.456 18.4312 21.6113 18.7654 21.4636C18.454 21.6189 17.9566 21.5735 17.7326 22.0205C18.1503 21.994 18.5945 21.7401 19.016 21.3613H19.0084Z" fill="#1A1A18"/>
<path fill-rule="evenodd" clip-rule="evenodd" d="M27.0583 5.13677C27.0394 4.26928 26.9596 3.5268 27.1343 2.7578C27.3621 1.75394 27.981 1.32966 28.2658 0.32959C28.4861 0.916755 28.7898 1.58726 28.6759 2.26155C28.5202 3.20859 27.5444 3.77682 27.271 4.56475C27.4988 3.79954 28.3266 3.03812 27.9659 1.97744C27.3773 2.72371 27.1001 3.85637 27.0583 5.13677Z" fill="#1A1A18"/>
<path d="M31.7174 13.3416C31.7174 13.3416 32.0516 13.7583 32.4275 13.55C32.7996 13.3416 33.0882 12.8908 33.1755 12.6408C33.2628 12.387 33.3692 12.3567 33.521 12.0764C33.6691 11.796 33.7109 11.8112 33.7565 11.5536C33.802 11.296 33.84 11.2013 34.1248 11.0005C34.4096 10.796 34.8842 10.3111 35.0057 10.0232C35.1272 9.73528 35.0399 9.45116 35.1652 9.10644C35.3095 8.70111 35.636 8.07606 35.4614 7.62527C35.4006 7.46617 35.2677 7.38283 35.1728 7.25782C34.7323 7.8715 34.926 8.80718 34.626 9.45874C34.3754 9.99287 34.045 10.6975 33.6236 11.1028C34.2273 10.2656 34.1855 10.2012 34.4058 9.78831C34.5577 9.50799 34.6868 9.04583 34.7361 8.7049C34.7893 8.34502 34.7741 7.52678 35.0399 7.0722C34.8121 7.28434 34.5311 8.18213 34.3526 8.39427C33.7944 9.05341 33.2552 11.6369 32.8755 12.3226C33.2704 11.1293 34.159 7.75407 34.9184 6.96234C34.5273 7.3601 34.0564 7.3904 32.9819 8.73141C33.2818 8.14046 34.1514 7.21615 34.6146 6.92067C35.0057 6.67065 34.907 6.38275 34.9791 5.97363C34.9791 5.97363 33.7603 6.432 33.4603 6.99265C33.1565 7.5533 32.6705 8.42836 32.5528 9.2807C32.4351 10.133 32.3591 11.3869 32.3287 11.815C32.2984 12.243 32.2072 12.4514 31.9984 12.8037C31.7896 13.156 31.7174 13.3416 31.7174 13.3416Z" fill="#1A1A18"/>
<path d="M35.2297 5.76179C35.4537 6.91339 36.8511 8.39078 37.7472 8.92112C36.9612 8.23167 35.7043 6.91339 35.4309 5.64815C35.9815 5.78073 36.9916 6.90203 37.4244 7.28463C37.9788 7.77331 39.2395 8.91354 39.8128 9.3757C40.2875 9.76209 40.0596 9.55753 40.4394 9.92498C38.8787 8.71656 37.0789 6.64443 35.579 5.34131C36.3309 5.99666 37.4548 6.17091 38.2788 6.69747C39.1331 7.24296 40.1622 8.10666 41.2064 8.95142C37.8687 5.84513 36.5245 5.36025 35.7347 5.11023C36.946 5.11023 37.5421 5.23524 38.1763 5.38298C38.8028 5.52693 39.7369 5.90574 40.8532 6.44366C40.0748 6.01181 38.6167 5.36404 38.1839 5.24282C37.489 5.04583 36.6194 4.82612 36.103 4.7049C37.1928 4.63292 39.2812 5.15569 40.3254 5.74664C41.0013 6.12924 41.5937 6.48912 41.5101 7.02325C41.4304 7.55359 41.3507 7.61799 41.4494 7.83392C41.5481 8.05363 41.5481 8.20894 41.4684 8.27334C41.3924 8.33774 41.3469 8.37562 41.3696 8.59155C41.3886 8.80369 41.2861 9.08401 41.1722 9.22038C41.0583 9.36055 41.0013 9.33403 40.971 9.46661C40.9406 9.59541 40.9254 9.76967 40.7659 9.99317C40.6064 10.2205 40.5077 10.1864 40.4545 10.2167C40.4014 10.2508 40.3027 10.372 40.0331 10.4515C39.7635 10.5311 39.4103 10.4061 39.0458 10.2924C38.6775 10.1826 37.7168 9.65223 37.0447 8.98552C36.3726 8.3188 35.8372 7.79982 35.6436 7.42101C35.4765 7.09523 35.0436 6.37926 35.2259 5.76937L35.2297 5.76179Z" fill="#1A1A18"/>
<path d="M41.233 6.04558C41.233 6.04558 41.4722 5.95845 41.5861 5.79177C41.7 5.62131 41.7722 5.53797 41.9468 5.44326C42.1177 5.34856 42.2392 5.25764 42.1899 5.11369C42.1405 4.97353 42 4.85989 41.9962 4.77655C41.9886 4.69321 41.9734 4.65533 41.7912 4.61745C41.6089 4.57956 40.8533 4.48486 40.6065 4.46592C40.3596 4.44698 39.6762 4.26515 39.2395 4.30303C38.8028 4.34091 38.5826 4.4394 38.3244 4.45834C38.0662 4.48107 37.9712 4.54168 37.6599 4.54168C37.3523 4.54168 37.1852 4.5682 37.1852 4.5682C37.1852 4.5682 38.1725 4.64396 38.7155 4.85231C39.2585 5.05687 39.8774 5.2084 40.3065 5.43569C40.7356 5.66677 41.0925 5.92815 41.0925 5.92815L41.2292 6.04937L41.233 6.04558Z" fill="#1A1A18"/>
<path d="M42.467 4.55703C42.467 4.55703 42.9758 4.58734 43.2151 4.52294C43.4543 4.45854 43.5454 4.31838 43.5454 4.1517C43.5454 3.98881 43.5188 3.7994 43.3973 3.71985L43.2758 3.6403C43.2758 3.6403 43.329 3.74258 43.2264 3.76152C43.1277 3.78425 42.8278 3.63272 42.5164 3.52287C42.205 3.4168 41.7152 3.29937 41.0431 3.27664C40.3368 3.25012 39.3952 3.36755 38.4345 3.59863C38.1421 3.66682 37.2574 3.92441 36.5815 4.33732C36.7979 4.26535 37.5877 4.057 37.9409 4.02669C38.3054 3.99639 38.7534 3.84107 39.1294 3.74637C39.8964 3.55696 40.6938 3.35619 41.4646 3.85244C40.5495 3.32588 39.5281 3.68576 38.5028 3.96987C37.7814 4.17064 37.0789 4.17064 36.384 4.48885C36.8663 4.46612 37.3675 4.28808 37.8459 4.2161C38.5446 4.11382 39.0914 3.93199 40.3596 4.11003C41.6279 4.28429 42.4708 4.55703 42.4708 4.55703H42.467Z" fill="#1A1A18"/>
<path d="M41.2557 9.48945C41.2557 9.48945 41.8253 9.57279 41.9734 9.42884C42.1215 9.28111 42.2354 9.10306 42.2126 9.00457L42.1898 8.90608C42.1898 8.90608 42.2316 8.88714 42.3379 8.78864C42.4442 8.69015 42.4442 8.65985 42.4025 8.5159C42.3607 8.37195 42.2924 8.2924 42.3341 8.228C42.3759 8.1636 42.5202 8.14845 42.5695 8.05753C42.6189 7.96661 42.5771 7.81888 42.5278 7.69008C42.4746 7.56128 42.4556 7.50825 42.4556 7.50825C42.4556 7.50825 42.5164 7.37945 42.5847 7.29611C42.6493 7.21656 42.729 7.12185 42.6759 6.99306C42.6227 6.86426 42.3303 6.44377 42.1595 6.29225C41.9886 6.14451 41.9126 6.0498 41.9126 6.0498C41.9126 6.0498 41.6924 6.243 41.6089 6.27709L41.5253 6.31498C41.5253 6.31498 41.719 6.5953 41.7759 6.7544C41.8329 6.91351 41.738 7.35293 41.6886 7.47415C41.643 7.59537 41.7266 7.78478 41.7683 7.95904C41.8139 8.13329 41.7304 8.39468 41.6506 8.48938C41.5709 8.58408 41.6506 8.71288 41.6013 8.94017C41.5481 9.16746 41.5557 9.25459 41.4304 9.34172C41.3089 9.42506 41.2557 9.48945 41.2557 9.48945Z" fill="#1A1A18"/>
<path d="M37.1739 14.0463C37.1739 14.0463 37.5384 14.2812 37.7738 14.2054C38.013 14.1297 38.1953 14.0312 38.332 13.8645C38.4687 13.6978 38.5598 13.2849 38.4421 12.997C38.3244 12.7129 38.2295 12.4591 38.2295 12.4591C38.2295 12.4591 38.1345 12.0537 38.0624 11.8605C37.994 11.6711 37.7966 11.4173 37.7814 11.2507C37.77 11.084 37.7776 10.9817 37.7814 10.7582C37.789 10.5347 37.732 10.171 37.6941 10.0081C37.6941 10.0081 36.9992 9.50431 36.8511 9.34899C36.703 9.19368 36.3081 8.84517 36.0955 8.55727C35.8828 8.26558 35.7841 8.07617 35.7841 8.07617C35.7841 8.07617 35.7841 8.3868 35.6816 8.68985C35.5829 8.99291 35.431 9.14822 35.4462 9.49673C35.4614 9.84524 35.4044 10.1597 35.3171 10.2657L35.2297 10.3718C35.2297 10.3718 35.8069 11.3226 36.1638 11.656C36.517 11.9931 37.1815 12.6636 37.3637 13.0008C37.4738 13.2016 37.8156 13.6296 37.7396 13.8796C37.6675 14.1069 37.3485 14.1637 37.1663 14.0425L37.1739 14.0463Z" fill="#1A1A18"/>
<path d="M38.8446 13.781C38.8446 13.781 39.2547 13.3454 39.2129 13.1408C39.1674 12.9363 39.2129 12.5915 39.0155 12.2809C38.818 11.9703 38.5029 11.4475 38.5408 11.1748C38.5788 10.9058 38.6851 10.4512 38.6851 10.4512C38.6851 10.4512 38.6661 10.4096 38.3965 10.2808C38.127 10.1558 38.0016 10.0459 38.0016 10.0459C38.0016 10.0459 38.032 10.4285 38.0434 10.7391C38.0548 11.0498 37.9637 11.1596 38.1725 11.6483C38.3852 12.1332 38.4991 12.4817 38.6168 12.7279C38.7345 12.9704 38.837 13.1408 38.7877 13.4552C38.7421 13.7697 38.8446 13.7772 38.8446 13.7772V13.781Z" fill="#1A1A18"/>
<path d="M39.4142 13.1523C39.4142 13.1523 39.6724 13.1599 39.8015 13.1333C39.9306 13.1068 40.0559 12.8871 40.0103 12.656C39.9609 12.4212 39.9875 12.1674 39.9913 11.8681C39.9951 11.5688 40.0673 11.1635 39.9647 10.993L39.8622 10.8226C39.8622 10.8226 39.6116 10.7392 39.4217 10.7127C39.2319 10.6824 39.1142 10.6332 38.9927 10.5839L38.8712 10.5347C38.8712 10.5347 38.7686 10.7203 38.7724 11.1067C38.7724 11.4931 38.9091 11.7507 39.1256 12.1333C39.342 12.5159 39.399 12.6447 39.3724 12.872C39.3458 13.0955 39.3534 13.1864 39.3534 13.1864L39.4066 13.1523H39.4142Z" fill="#1A1A18"/>
<path d="M40.1736 11.8416C40.1736 11.8416 40.2116 11.5726 40.2268 11.3908C40.2419 11.2127 40.2723 11.0461 40.1774 10.9362L40.0825 10.8226C40.0825 10.8226 40.2685 10.6294 40.4508 10.5688C40.633 10.5081 40.8229 10.3756 40.9292 10.2468C41.0355 10.118 41.1457 9.88689 41.1684 9.79597C41.1912 9.70506 41.2406 9.61035 41.2406 9.61035C41.2406 9.61035 41.4646 9.69748 41.6051 9.65581C41.7456 9.61414 41.7874 9.67475 41.7874 9.67475C41.7874 9.67475 41.8975 9.6899 41.8823 9.90204C41.8709 10.1104 41.7418 10.1369 41.757 10.3149C41.7722 10.4892 41.738 10.5991 41.8329 10.7089L41.9279 10.8188C41.9279 10.8188 41.9355 10.8983 41.8139 10.9211L41.6924 10.9438C41.6924 10.9438 41.7874 11.0536 41.7152 11.209C41.6431 11.3643 41.6203 11.2923 41.4532 11.3378C41.2824 11.3794 41.195 11.5234 41.0507 11.565C40.9102 11.6067 40.971 11.4665 40.709 11.5953C40.447 11.7204 40.1812 11.8454 40.1812 11.8454L40.1736 11.8416Z" fill="#1A1A18"/>
<path d="M41.9658 10.4401C41.9658 10.4401 42.2468 10.3302 42.3303 10.2923C42.4139 10.2545 42.3835 10.2279 42.3759 10.1408C42.3683 10.0537 42.3341 9.96656 42.4329 9.94384C42.5316 9.92111 42.524 9.83019 42.4594 9.74685C42.3949 9.66351 42.2848 9.5082 42.3455 9.39834C42.4101 9.28848 42.5354 9.23545 42.5088 9.07256L42.4822 8.90967L42.3797 9.03847C42.3797 9.03847 42.3645 9.02331 42.3075 9.2506C42.2544 9.47789 42.2734 9.51956 42.1481 9.57638L42.0228 9.63321C42.0228 9.63321 42.0228 9.76579 42.0342 9.97414C42.0493 10.1825 42.0076 10.1976 41.962 10.3227L41.9164 10.4439H41.9734L41.9658 10.4401Z" fill="#1A1A18"/>
<path fill-rule="evenodd" clip-rule="evenodd" d="M33.9273 5.90576C33.5362 6.55354 33.2438 7.1407 32.754 7.6218C32.1161 8.24685 31.463 8.25442 30.7795 8.84537C30.8934 8.29988 30.9845 7.65968 31.3832 7.21646C31.9414 6.59899 32.9287 6.66339 33.4982 6.22397C32.9742 6.67476 32.0022 6.81871 31.7743 7.7809C32.5565 7.52709 33.2932 6.83007 33.9273 5.90576Z" fill="#1A1A18"/>
<path fill-rule="evenodd" clip-rule="evenodd" d="M34.6487 5.24269C35.3968 4.11761 35.955 3.09102 36.8587 2.27278C38.0396 1.20451 39.2091 1.2424 40.4659 0.230957C40.2267 1.19315 40.0179 2.33339 39.2774 3.09481C38.237 4.15928 36.4828 3.96608 35.4385 4.70856C36.4068 3.94714 38.1497 3.75395 38.6243 2.05685C37.208 2.45082 35.8486 3.6403 34.6563 5.2389L34.6487 5.24269Z" fill="#1A1A18"/>
<path fill-rule="evenodd" clip-rule="evenodd" d="M18.4236 6.33372C18.8147 6.45873 19.1375 6.59889 19.5096 6.62162C19.9919 6.64814 20.2728 6.40949 20.7627 6.40949C20.5273 6.22387 20.2653 5.98521 19.9463 5.94733C19.4982 5.8943 19.1071 6.28448 18.716 6.31099C19.0919 6.30342 19.5514 6.00794 19.9805 6.32615C19.5628 6.50798 19.0122 6.48904 18.4274 6.33372H18.4236Z" fill="#1A1A18"/>
<path fill-rule="evenodd" clip-rule="evenodd" d="M18.8831 6.28809C19.016 6.56083 19.1109 6.80706 19.2894 7.0192C19.521 7.29195 19.783 7.32225 20.0336 7.58742C20.0071 7.36392 19.9957 7.10633 19.8514 6.91313C19.6501 6.64417 19.2552 6.63281 19.0426 6.43204C19.2363 6.63281 19.6198 6.72751 19.6767 7.12148C19.3729 6.9889 19.1034 6.68205 18.8831 6.28809Z" fill="#1A1A18"/>
<path d="M15.2569 4.60645C15.2569 4.60645 15.2531 4.39052 15.4164 4.35264C15.5834 4.31476 15.7847 4.37158 15.8758 4.42462C15.9669 4.47765 16.0049 4.45871 16.1226 4.50038C16.2403 4.54584 16.2479 4.53069 16.3277 4.59508C16.4074 4.65948 16.4416 4.67842 16.5783 4.65948C16.7188 4.64433 16.9846 4.65948 17.0947 4.71252C17.2048 4.76555 17.2504 4.87541 17.3795 4.94738C17.5276 5.03072 17.7858 5.12921 17.8465 5.31105C17.8693 5.37545 17.8465 5.43606 17.8541 5.50045C17.5655 5.43227 17.3833 5.09891 17.1251 4.98526C16.9124 4.89056 16.6314 4.76934 16.3998 4.76176C16.7985 4.84889 16.7985 4.8792 16.9732 4.94359C17.0909 4.98526 17.2466 5.09133 17.3529 5.17846C17.463 5.27316 17.6643 5.52318 17.8617 5.58758C17.7402 5.58758 17.425 5.3906 17.3149 5.37544C16.977 5.32999 16.153 4.69736 15.8606 4.5913C16.2859 4.84131 17.4174 5.62168 17.8503 5.65198C17.6301 5.63683 17.482 5.75805 16.8137 5.64819C17.0567 5.7429 17.5579 5.78457 17.7706 5.75047C17.9528 5.72017 17.9984 5.83381 18.1237 5.93609C18.1237 5.93609 17.6377 6.12929 17.4023 6.04216C17.1668 5.95503 16.7985 5.82624 16.5403 5.59895C16.2859 5.37544 15.9442 5.01557 15.8226 4.89435C15.7049 4.77313 15.6214 4.73525 15.4695 4.686C15.3138 4.63675 15.2455 4.59887 15.2455 4.59887L15.2569 4.60645Z" fill="#1A1A18"/>
<path d="M18.2604 5.93982C18.0325 5.5307 18.0743 4.70488 18.211 4.29955C18.1503 4.72004 18.1085 5.46252 18.3515 5.92088C18.4844 5.73147 18.4996 5.11779 18.5338 4.88293C18.5755 4.58366 18.6629 3.89422 18.7198 3.60253C18.7654 3.3563 18.7464 3.48131 18.7692 3.26538C18.6097 4.05711 18.5945 5.17083 18.4768 5.97392C18.5338 5.57237 18.8299 5.2125 18.9438 4.82989C19.0616 4.43214 19.1489 3.89043 19.2514 3.34872C19.0388 5.19734 18.7578 5.71253 18.5831 6.00043C18.9514 5.67086 19.0995 5.47009 19.2514 5.25417C19.4033 5.03824 19.5894 4.67079 19.7868 4.20485C19.6653 4.54578 19.3881 5.14052 19.2894 5.29584C19.1299 5.54585 18.9249 5.84891 18.7996 6.02695C19.1451 5.75042 19.6425 5.02309 19.8058 4.56093C19.9121 4.26167 19.9957 3.99271 19.8362 3.85255C19.6767 3.71617 19.6349 3.71617 19.6083 3.62526C19.5818 3.53055 19.5438 3.4851 19.502 3.48888C19.4641 3.48888 19.4413 3.48888 19.3919 3.4207C19.3425 3.35251 19.24 3.2919 19.1717 3.28432C19.1033 3.27296 19.0919 3.29569 19.0502 3.26538C19.0084 3.23508 18.959 3.18583 18.8527 3.1631C18.7464 3.13659 18.7236 3.17447 18.7008 3.18204C18.6781 3.18583 18.6135 3.17826 18.5148 3.2275C18.4123 3.27675 18.3401 3.40933 18.2566 3.54571C18.1768 3.67829 18.0211 4.10257 17.987 4.48517C17.9566 4.86777 17.9262 5.17083 17.9642 5.34129C17.9984 5.48524 18.0477 5.8186 18.2604 5.95498V5.93982Z" fill="#1A1A18"/>
<path d="M19.9994 4.21593C19.9994 4.21593 20.0944 4.17805 20.1703 4.19699C20.2463 4.21593 20.2918 4.22351 20.3678 4.20457C20.4437 4.18563 20.5045 4.17805 20.5272 4.23866C20.55 4.29548 20.5348 4.36746 20.5538 4.39398C20.5728 4.42049 20.5804 4.43565 20.531 4.49626C20.4855 4.55687 20.2804 4.79173 20.2121 4.8675C20.1437 4.93947 19.9843 5.18191 19.8438 5.28798C19.7033 5.39405 19.6083 5.42814 19.5286 5.48875C19.4451 5.55315 19.3995 5.56073 19.3084 5.64407C19.2172 5.72741 19.1603 5.76529 19.1603 5.76529C19.1603 5.76529 19.4375 5.4736 19.5514 5.26146C19.6615 5.04933 19.8096 4.83719 19.8817 4.65157C19.9539 4.46595 19.9918 4.28791 19.9918 4.28791L20.0032 4.21214L19.9994 4.21593Z" fill="#1A1A18"/>
<path d="M20.7551 4.32596C20.7551 4.32596 20.8994 4.17822 20.9905 4.13276C21.0779 4.0873 21.1424 4.10624 21.1842 4.15549C21.2259 4.20473 21.2677 4.26913 21.2487 4.32596L21.2335 4.38278C21.2335 4.38278 21.2221 4.33732 21.188 4.36005C21.1538 4.37899 21.1006 4.50779 21.0361 4.62522C20.9677 4.74265 20.85 4.90933 20.6526 5.10253C20.4475 5.3033 20.1324 5.52301 19.783 5.71621C19.6767 5.77682 19.3426 5.93971 19.035 5.99653C19.1185 5.95865 19.4109 5.80713 19.5248 5.72C19.6425 5.62908 19.8172 5.55332 19.9539 5.48134C20.2349 5.32982 20.5273 5.17071 20.6336 4.81084C20.4931 5.21996 20.0906 5.39043 19.7071 5.58362C19.4375 5.72 19.2287 5.91319 18.9363 6.00411C19.0882 5.8791 19.2856 5.79576 19.4489 5.6859C19.6843 5.5268 19.897 5.4321 20.2349 5.03055C20.5728 4.6328 20.7589 4.31838 20.7589 4.31838L20.7551 4.32596Z" fill="#1A1A18"/>
<path d="M19.1223 3.16687C19.1223 3.16687 19.2742 2.98504 19.3539 2.98883C19.4375 2.98883 19.5172 3.01535 19.5362 3.05323L19.5552 3.08732C19.5552 3.08732 19.5704 3.07974 19.6273 3.08353C19.6843 3.08353 19.6919 3.09111 19.7185 3.14793C19.745 3.20097 19.7412 3.24642 19.7716 3.254C19.802 3.26158 19.8476 3.22748 19.8855 3.24263C19.9235 3.25779 19.9501 3.31082 19.9653 3.36386C19.9843 3.41689 19.9881 3.43962 19.9881 3.43962C19.9881 3.43962 20.0412 3.46235 20.083 3.46992C20.1248 3.4775 20.1703 3.48508 20.1893 3.53811C20.2083 3.59115 20.2235 3.79949 20.2159 3.89041C20.2007 3.98133 20.2045 4.03057 20.2045 4.03057C20.2045 4.03057 20.0906 4.03057 20.0526 4.04194L20.0184 4.0533C20.0184 4.0533 20.007 3.91693 19.9805 3.85253C19.9577 3.78813 19.8172 3.68206 19.7678 3.65933C19.7223 3.6366 19.6995 3.55326 19.6691 3.49265C19.6387 3.42825 19.5476 3.37143 19.4982 3.36386C19.4489 3.35628 19.4413 3.29567 19.3653 3.24263C19.2894 3.1896 19.2704 3.1593 19.2134 3.16687C19.1527 3.17445 19.1223 3.16687 19.1223 3.16687Z" fill="#1A1A18"/>
<path d="M16.7225 2.90525C16.7225 2.90525 16.7719 2.73479 16.863 2.69312C16.9542 2.65145 17.0339 2.62872 17.1174 2.64387C17.201 2.65523 17.3339 2.75751 17.3718 2.87495C17.4098 2.99238 17.444 3.09466 17.444 3.09466C17.444 3.09466 17.5199 3.2424 17.5465 3.31816C17.5769 3.39393 17.5807 3.52651 17.6187 3.57955C17.6566 3.63258 17.687 3.66289 17.7478 3.72728C17.8085 3.79168 17.8845 3.91669 17.9148 3.9773C17.9148 3.9773 17.8351 4.31824 17.8313 4.40536C17.8275 4.49249 17.7971 4.70463 17.8085 4.85237C17.8199 4.99632 17.8389 5.08345 17.8389 5.08345C17.8389 5.08345 17.7591 4.99253 17.649 4.92434C17.5427 4.85994 17.4554 4.85616 17.3718 4.7463C17.2845 4.63644 17.1896 4.55689 17.1364 4.54931L17.0833 4.54174C17.0833 4.54174 17.0149 4.09852 17.0377 3.89775C17.0567 3.70077 17.0871 3.31437 17.0567 3.16285C17.0377 3.07193 17.0339 2.84843 16.9428 2.7954C16.863 2.74615 16.7529 2.81813 16.7263 2.90146L16.7225 2.90525Z" fill="#1A1A18"/>
<path d="M17.2921 2.53027C17.2921 2.53027 17.5275 2.54921 17.5655 2.62498C17.6035 2.70074 17.706 2.79166 17.725 2.93939C17.744 3.08713 17.7857 3.32958 17.8655 3.40155C17.9452 3.47353 18.0933 3.57959 18.0933 3.57959C18.0933 3.57959 18.0971 3.59853 18.0515 3.70839C18.0022 3.81825 17.9908 3.88643 17.9908 3.88643C17.9908 3.88643 17.9035 3.76143 17.8237 3.66672C17.7478 3.56823 17.6908 3.56065 17.6301 3.35609C17.5693 3.15153 17.5161 3.01516 17.4896 2.90909C17.463 2.80302 17.4516 2.72347 17.3529 2.64392C17.2579 2.56058 17.2883 2.53027 17.2883 2.53027H17.2921Z" fill="#1A1A18"/>
<path d="M17.6262 2.56425C17.6262 2.56425 17.7022 2.49227 17.7477 2.46197C17.7933 2.43545 17.8882 2.46575 17.9338 2.54909C17.9794 2.63243 18.0515 2.70441 18.1313 2.79154C18.211 2.87866 18.3363 2.98473 18.3477 3.06428L18.3629 3.14384C18.3629 3.14384 18.3097 3.23854 18.2604 3.29915C18.211 3.35976 18.1882 3.40901 18.1616 3.45446L18.1388 3.49992C18.1388 3.49992 18.0591 3.47341 17.9604 3.35597C17.8617 3.23854 17.8351 3.12489 17.8047 2.95064C17.7705 2.77638 17.7553 2.72335 17.6908 2.65895C17.6262 2.59834 17.6035 2.56803 17.6035 2.56803H17.63L17.6262 2.56425Z" fill="#1A1A18"/>
<path d="M18.192 2.75409C18.192 2.75409 18.2718 2.82606 18.3249 2.87531C18.3743 2.92455 18.4274 2.96622 18.4274 3.02683V3.08744C18.4274 3.08744 18.5338 3.09502 18.6021 3.06472C18.6743 3.03441 18.7654 3.02305 18.8299 3.03062C18.8945 3.04199 18.9894 3.07987 19.0198 3.1026C19.0502 3.12533 19.0881 3.14048 19.0881 3.14048C19.0881 3.14048 19.1337 3.05335 19.1869 3.02683C19.24 3.00032 19.2362 2.97001 19.2362 2.97001C19.2362 2.97001 19.2666 2.93592 19.2058 2.87531C19.1489 2.8147 19.1033 2.845 19.0616 2.78439C19.0198 2.72757 18.9818 2.70484 18.9818 2.64423V2.58362C18.9818 2.58362 18.9666 2.5571 18.9211 2.58362L18.8793 2.61014C18.8793 2.61014 18.8793 2.54953 18.8185 2.52301C18.7578 2.49649 18.7692 2.52301 18.7046 2.5571C18.6439 2.5912 18.5793 2.57225 18.5262 2.59877C18.473 2.62529 18.5262 2.64802 18.416 2.68211C18.3059 2.7162 18.192 2.7503 18.192 2.7503V2.75409Z" fill="#1A1A18"/>
<path d="M19.0919 2.68962C19.0919 2.68962 19.2058 2.64795 19.24 2.63659C19.2742 2.62522 19.2742 2.64037 19.2932 2.67068C19.316 2.6972 19.3273 2.73508 19.3615 2.71614C19.3957 2.6972 19.4185 2.72371 19.4185 2.76917C19.4185 2.81084 19.4261 2.89039 19.4716 2.90555C19.521 2.9207 19.5704 2.90555 19.6045 2.95858L19.6387 3.0154L19.5742 3.00404C19.5742 3.00404 19.5742 3.01161 19.4982 2.95858C19.4223 2.90555 19.4185 2.8866 19.3653 2.90555L19.3122 2.9207C19.3122 2.9207 19.278 2.88282 19.2286 2.81463C19.1793 2.74644 19.1641 2.75402 19.1185 2.73129L19.0729 2.70477L19.0919 2.68962Z" fill="#1A1A18"/>
<path fill-rule="evenodd" clip-rule="evenodd" d="M17.8275 6.25015C17.5427 6.16302 17.3035 6.06453 17.0339 6.05316C16.6807 6.03801 16.4833 6.21605 16.1226 6.22363C16.2972 6.35621 16.4909 6.52668 16.7225 6.54941C17.0491 6.5835 17.33 6.2956 17.6148 6.27287C17.3414 6.28045 17.0111 6.50016 16.6959 6.27287C16.9997 6.1365 17.3984 6.14408 17.8275 6.25015Z" fill="#1A1A18"/>
<path fill-rule="evenodd" clip-rule="evenodd" d="M14.9758 7.40177C15.7846 8.41321 18.154 7.94726 18.1768 6.2085C18.2869 6.49261 18.3325 6.78808 18.1882 7.0381C18.5299 6.96613 18.997 6.93961 19.3008 7.1366C19.6083 7.33358 19.9842 7.89044 19.3273 7.9662C19.3273 8.72762 18.1502 8.75793 18.1844 7.87529C18.1806 7.8715 18.2831 7.79952 18.2869 7.79574C18.3021 8.49276 19.1071 8.40942 19.0881 7.81089C19.0691 7.08356 18.3211 7.26161 17.987 7.46238C17.0567 8.01924 15.9479 8.4776 15.0252 7.5192L14.9758 7.40177Z" fill="#1A1A18"/>
<path fill-rule="evenodd" clip-rule="evenodd" d="M14.8012 7.32227C15.0518 7.76548 15.2303 8.16324 15.5492 8.49281C15.9593 8.92466 16.3998 8.9436 16.8403 9.35651C16.7757 8.98906 16.7301 8.55721 16.4719 8.25415C16.1112 7.82988 15.4505 7.85261 15.0822 7.54198C15.4239 7.85261 16.0694 7.97383 16.2023 8.6216C15.6859 8.43598 15.2075 7.9511 14.805 7.32227H14.8012Z" fill="#1A1A18"/>
<path fill-rule="evenodd" clip-rule="evenodd" d="M11.6381 12.569C12.4431 9.76957 11.2584 6.90194 8.3118 6.01172C5.76772 5.23893 3.4173 5.81095 1.65164 7.2656C2.75281 5.72382 5.04627 5.31849 6.82712 5.00407C9.20032 4.58358 11.6115 5.89429 13.0848 7.78079C15.1998 10.4931 17.1097 19.3271 21.9776 16.7133L21.5068 16.9027C16.9958 18.3043 15.2605 9.36045 13.1455 6.64434C11.676 4.75784 8.9725 3.39789 6.5955 3.81837C4.35519 4.21234 1.72758 4.58358 1.24914 7.33757L1.20358 7.65957C0.755519 8.09521 0.349226 8.58767 -0.00390625 9.13695L0.280878 9.0574C0.539083 8.95512 0.801084 8.81496 1.06688 8.65207V8.68616C1.06688 8.68616 1.06688 8.66343 1.06688 8.65207C2.12248 8.00808 3.23884 7.03452 4.45012 6.883C5.5361 6.74662 6.38286 6.69359 7.47263 6.79587C9.51169 6.99285 11.3115 8.45508 11.1065 10.656C10.9432 12.4364 9.54966 13.4517 7.92829 12.6258C6.5955 11.9478 5.88923 9.762 7.71565 9.29605C5.70697 8.69752 4.86781 11.5879 5.71456 13.0047C7.09672 15.3192 10.89 15.1715 11.6381 12.569ZM16.7908 10.7924H16.7832C16.9541 11.0879 17.1363 11.3265 17.3224 11.5197C18.2717 12.7925 19.1754 13.857 20.0867 14.3836C21.5676 15.2397 22.851 15.5996 23.9256 15.6753C23.6142 15.8837 23.1965 15.7132 22.8434 15.7435C22.0764 15.8117 21.9017 16.3496 21.3891 16.8345C21.4802 16.7474 21.822 16.5655 21.9435 16.5466C22.0726 16.5239 22.1561 16.5845 22.2928 16.5617C22.6611 16.5011 23.0257 16.2663 23.3674 16.0428C22.8662 16.6527 21.8713 17.2095 21.0549 17.1754C22.0954 17.5694 23.656 16.7701 24.123 15.6867C25.5052 15.7397 26.5266 15.3117 27.1569 14.8646C29.0935 13.4933 30.2554 10.2355 29.2947 7.90959C28.3264 5.56472 26.1849 3.79565 23.7927 4.45857C23.2421 4.43963 22.87 4.12143 22.7902 3.8411C22.6763 3.45092 22.8244 3.06074 23.0864 2.99256C23.3484 2.90543 23.4281 3.00013 23.4395 3.09484C23.4623 3.18575 23.375 3.18575 23.3028 3.18196C23.1623 3.16302 23.0067 3.33349 23.0674 3.5532C23.1358 3.76534 23.299 3.87141 23.561 3.78428C23.8117 3.70473 23.9104 3.42062 23.8496 3.18196C23.7737 2.92437 23.4661 2.68571 23.0522 2.8183C22.6459 2.94331 22.4675 3.44713 22.589 3.88656C22.6649 4.15173 22.9421 4.46994 23.4319 4.56843C23.2307 4.64419 23.0295 4.73511 22.8282 4.84497C21.2562 5.70867 19.8968 8.42099 21.541 10.1484L21.298 9.83776C20.4322 7.92474 21.2334 6.22386 22.4941 5.30333C21.4498 6.51176 21.8523 8.78086 23.337 9.51577H23.3446C21.8296 8.74298 21.4612 6.36781 22.6308 5.20105C22.7257 5.13665 22.8206 5.07983 22.9231 5.02301C25.7064 3.48123 28.2695 5.59123 29.1238 8.12551C29.8947 10.3984 28.8808 13.2433 27.0392 14.5464C26.4507 14.9631 25.49 15.4101 24.199 15.4253C24.2217 15.3344 24.2407 15.2435 24.2445 15.1525C24.2104 15.2624 24.1724 15.3495 24.1306 15.4253C23.0598 15.4253 21.765 15.1222 20.2651 14.2548C19.95 14.0729 19.6348 13.8229 19.3197 13.5199C20.3411 14.2169 21.5714 14.6601 22.7561 14.8343C24.5939 15.1033 27.9353 13.6865 27.5328 10.7204C27.5746 11.9175 27.3696 12.4592 26.5874 13.3191C25.9684 14.0009 25.1634 14.3684 24.2863 14.5805C22.6839 14.9669 21.4726 14.4139 20.0753 13.5956C19.3994 13.2016 18.7121 12.7319 18.1312 12.1637C18.1008 12.122 18.0666 12.0841 18.04 12.0425C18.5982 12.3076 19.1146 12.2319 19.4146 12.0425C19.9576 11.6864 20.2386 10.9591 19.9158 10.4136C19.5893 9.84912 19.0311 9.80367 18.7045 10.0082C18.4159 10.209 18.2527 10.6181 18.4501 10.9553C18.6552 11.3151 18.9362 11.3568 19.2095 11.1977C19.4829 11.0197 19.4791 10.6749 19.3045 10.5575C19.2171 10.4855 19.1298 10.3984 19.2361 10.3226C19.3386 10.2279 19.5133 10.2052 19.7146 10.5613C19.9348 10.8947 19.7335 11.4705 19.2437 11.7811C18.9096 11.997 18.2489 11.9856 17.6489 11.5197C14.4062 7.07619 10.6053 -0.200864 2.92368 3.92065L2.00477 5.4094C9.29146 -0.443306 13.3961 6.08748 16.7946 10.7924H16.7908ZM20.8993 9.31499C20.8499 10.5802 22.4143 12.0349 23.6256 11.7394C22.7447 11.7394 22.8852 11.0386 22.6991 10.5765C22.4143 9.87185 21.8865 9.86428 21.3018 9.52713C21.4081 9.58774 21.6663 9.8567 21.7194 9.96656C21.7764 10.0802 21.7498 10.1787 21.8068 10.2999C21.9701 10.6295 22.2852 10.906 22.5814 11.1598C21.8941 10.8681 21.1081 10.0954 20.8993 9.31499ZM25.6001 9.22787C25.676 9.1218 25.7254 8.99679 25.7444 8.87178C25.7748 8.73162 25.7672 8.59146 25.6988 8.47781L25.6836 8.46266C25.6457 8.39447 25.5887 8.33386 25.5166 8.2884C25.509 8.2884 25.5052 8.28083 25.5014 8.27704C25.5014 8.27704 25.4824 8.26946 25.471 8.26567L25.4368 8.25052C25.4634 8.26189 25.4862 8.28083 25.509 8.29598L25.6153 8.40205C25.6153 8.40205 25.6229 8.41341 25.6267 8.4172C25.6836 8.53463 25.6305 8.66343 25.49 8.73162C25.714 8.94754 25.4254 9.37939 25.2356 9.53092C25.2356 9.53092 25.2432 9.53092 25.2432 9.52713C24.7002 9.90216 23.918 9.81124 23.3484 9.52713C23.356 9.53092 23.3636 9.5385 23.3712 9.54228C24.0699 9.88701 25.0799 9.95141 25.5925 9.22787H25.6001ZM25.2356 9.53092C25.228 9.53092 25.228 9.53471 25.2356 9.53092V9.53092ZM27.5366 10.6825C27.5366 10.6825 27.5404 10.7204 27.5442 10.7393C27.5442 10.7128 27.5442 10.6901 27.5442 10.6636V10.6825H27.5366ZM27.3164 10.9742C27.3392 10.8454 27.4151 10.7848 27.4379 10.6522C27.4987 10.2886 27.4075 9.87185 27.3126 9.48546C27.6961 10.1408 27.8784 11.247 27.5936 12.0046C28.3682 11.0235 27.9543 8.89072 26.8152 8.37932C27.5215 8.92103 27.005 9.39833 26.8873 9.88322C26.7089 10.6219 27.1303 10.9553 27.3999 11.5841C27.3506 11.4705 27.2974 11.0954 27.3202 10.9742H27.3164Z" fill="#1A1A18"/>
<path fill-rule="evenodd" clip-rule="evenodd" d="M24.8332 14.3305C26.0065 13.1334 29.0062 14.0463 28.8164 16.2927C28.9948 15.9404 29.0898 15.5654 28.9341 15.2245C29.3632 15.3608 29.9669 15.4555 30.3846 15.2434C30.8099 15.0275 31.3567 14.3608 30.5213 14.1751C30.6162 13.194 29.0974 12.997 29.0366 14.1448C29.029 14.1524 29.1543 14.2547 29.1581 14.2623C29.2644 13.3645 30.2935 13.5766 30.1985 14.3494C30.0846 15.2889 29.1429 14.9555 28.7328 14.6525C27.6013 13.8115 26.2267 13.0728 24.9129 14.1903L24.8332 14.3342V14.3305Z" fill="#1A1A18"/>
<path d="M66.5864 13.4211C65.1396 15.7205 63.4689 18.7965 61.5742 22.6453C60.6097 24.5962 59.7401 26.5206 58.9731 28.4185C58.134 30.5171 57.7125 31.8619 57.7125 32.4491C57.7125 32.9453 57.9365 33.1953 58.3846 33.1953C59.2237 33.1953 60.3705 32.6044 61.8172 31.4263C63.1917 30.3201 64.1068 29.3238 64.5511 28.4412C64.8207 28.3503 64.9878 28.4412 65.0599 28.7177C64.5055 29.714 63.5221 30.7823 62.1095 31.9263C60.5907 33.1612 59.349 33.7787 58.3846 33.7787C56.7746 33.7787 55.9734 32.9036 55.9734 31.1497C55.9734 30.3012 56.2696 29.2253 56.8581 27.9146C57.234 27.0471 57.9213 25.7402 58.9238 23.9863C60.1047 21.9786 61.3349 19.8762 62.6222 17.6828L62.326 17.876C61.0577 19.6451 59.0908 22.3195 56.429 25.8955C55.2861 27.354 53.7673 29.0284 51.8725 30.93C50.3347 32.4604 49.3892 33.3469 49.0322 33.5855C48.8538 33.7143 48.7209 33.7522 48.6298 33.6954C48.5044 33.6234 48.512 33.4567 48.6563 33.1991C49.1386 32.4263 49.9967 30.8732 51.227 28.551C52.78 25.2894 54.2001 22.5127 55.4874 20.2247C56.2582 18.8799 57.1277 17.3873 58.0922 15.7471L57.9061 15.7205C56.243 17.5654 53.6268 20.5429 50.0499 24.653C48.1361 26.9221 45.8047 28.8655 43.0518 30.4868C39.3686 32.6801 35.6778 33.7787 31.9794 33.7787C29.7618 33.7787 27.9772 33.29 26.6178 32.3127C25.1711 31.2823 24.4459 29.8617 24.4459 28.0548C24.4459 25.5281 25.904 23.3613 28.8164 21.5543C31.6034 19.8383 34.793 18.9822 38.3889 18.9822C40.0141 18.9822 41.4987 19.1678 42.8391 19.5352C43.8568 19.8307 44.5554 20.1451 44.9314 20.4747C44.9503 20.5315 44.8858 20.5845 44.7453 20.6414C44.6048 20.6982 44.4491 20.7058 44.2896 20.6679C43.0366 19.9671 41.1798 19.6186 38.7117 19.6186C35.636 19.6186 32.6894 20.5845 29.8644 22.5127C27.0393 24.4447 25.6268 26.4713 25.6268 28.5965C25.6268 31.6649 27.7721 33.1953 32.0629 33.1953C35.0816 33.1953 38.2104 32.3354 41.4456 30.6194C44.4643 29.0321 47.0653 26.9903 49.2487 24.4977C55.1304 17.7775 58.5706 14.05 59.5693 13.3113C59.7287 13.2014 60.0325 13.0916 60.4806 12.9779C60.8375 12.887 61.016 12.959 61.016 13.1976C61.016 13.2545 60.978 13.3189 60.9097 13.3908C60.4084 13.853 59.5161 15.3531 58.2289 17.8987C57.1923 20.0731 55.7266 23.0431 53.8318 26.8047C52.8484 28.5397 52.0699 29.7557 51.5004 30.4565L51.5801 30.5398C51.8307 30.3201 52.5939 29.445 53.866 27.9184C55.4798 25.9865 56.9492 24.1265 58.2744 22.3422C60.3819 19.539 62.5652 16.6411 64.8321 13.6522C64.9574 13.4931 65.2763 13.3113 65.7928 13.1143C66.0586 13.0272 66.2826 12.9817 66.461 12.9817C66.7458 12.9817 66.7914 13.1294 66.5939 13.4249L66.5864 13.4211Z" fill="#1A1A18"/>
<path d="M74.0097 25.4826C74.0097 25.5394 73.9566 25.6493 73.8503 25.816C73.8161 25.8728 73.3414 26.9865 72.4301 29.1571C71.6251 31.0702 71.2226 32.2293 71.2226 32.6385C71.2226 32.9188 71.329 33.0552 71.5454 33.0552C71.9555 33.0552 72.6352 32.4642 73.5845 31.2861C73.6566 31.2671 73.7325 31.2937 73.8123 31.3694C73.892 31.4452 73.9224 31.5247 73.9072 31.6194C72.9427 33.04 71.9403 33.7484 70.9037 33.7484C70.0645 33.7484 69.643 33.3165 69.643 32.4491C69.643 32.1536 69.7873 31.6119 70.0721 30.8164C68.6064 32.771 67.4369 33.7484 66.5598 33.7484C65.6485 33.7484 65.1928 33.165 65.1928 31.9945C65.1928 30.3618 65.9712 28.8048 67.5242 27.3199C69.0241 25.8917 70.5695 25.1758 72.1605 25.1758C72.9655 25.1758 73.5465 25.2326 73.9034 25.3425C73.9756 25.3803 74.0097 25.4258 74.0097 25.4826ZM71.7315 26.3956C71.7315 26.0622 71.6062 25.8955 71.3555 25.8955C70.6227 25.8955 69.6354 26.7857 68.3938 28.57C67.1521 30.3542 66.5294 31.6838 66.5294 32.5551C66.5294 32.8885 66.6737 33.0552 66.9585 33.0552C67.4217 33.0552 68.3634 32.1346 69.7721 30.2974C70.4139 29.4413 70.9037 28.6723 71.234 27.9828C71.5644 27.2972 71.7315 26.7668 71.7315 26.3956Z" fill="#1A1A18"/>
<path d="M86.2365 18.0693C85.2531 20.5392 83.7532 24.2364 81.7331 29.1572C80.9281 31.0816 80.5256 32.2522 80.5256 32.6613C80.5256 32.9416 80.6054 33.0818 80.7649 33.0818C81.0686 33.0818 81.4711 32.8242 81.9723 32.3128C82.2761 31.9908 82.5799 31.6574 82.8837 31.3127C83.0811 31.3127 83.1798 31.4226 83.1798 31.6461C82.2154 33.0666 81.2243 33.775 80.2029 33.775C79.4169 33.775 79.022 33.3772 79.022 32.5855C79.022 32.2181 79.1663 31.6347 79.4511 30.843C77.9854 32.7977 76.8234 33.775 75.9653 33.775C75.5704 33.775 75.2438 33.5932 74.9856 33.2333C74.7274 32.8734 74.5983 32.4113 74.5983 31.8544C74.5983 30.5172 75.2476 29.1269 76.5462 27.6799C78.0043 26.0472 79.6599 25.2289 81.5129 25.2289C81.4749 25.2213 81.5319 25.2176 81.6724 25.2176C83.4722 20.9294 84.4519 18.6072 84.6151 18.2587C84.6873 18.1299 84.748 18.039 84.805 17.9822C84.8582 17.9253 84.9569 17.8761 85.1012 17.8306C85.2455 17.7852 85.4961 17.717 85.8568 17.6261C86.1454 17.5541 86.2859 17.6337 86.2859 17.8761C86.2859 17.9329 86.2669 17.9973 86.2327 18.0693H86.2365ZM81.1977 26.4525C81.1977 26.1191 81.0458 25.9525 80.7421 25.9525C79.9902 25.9525 78.9916 26.8919 77.7385 28.7671C76.5425 30.5702 75.9425 31.843 75.9425 32.5855C75.9425 32.9189 76.0488 33.0856 76.2653 33.0856C76.8007 33.0856 77.7651 32.165 79.1625 30.3278C79.8232 29.4717 80.3168 28.7102 80.6358 28.0435C81.0117 27.2253 81.1977 26.6949 81.1977 26.4563V26.4525Z" fill="#1A1A18"/>
<path d="M93.5839 18.6491C93.5839 19.1833 93.3409 19.9295 92.8587 20.888C92.4106 21.7744 91.8676 22.6116 91.2221 23.4033C90.1134 24.8049 88.9059 25.9376 87.6035 26.8051C86.0656 30.3621 85.2986 32.3737 85.2986 32.832C85.2986 33.1086 85.4239 33.2449 85.6745 33.2449C86.0504 33.2449 86.5403 33.0328 87.1478 32.6085C87.6642 32.26 88.0135 31.9532 88.192 31.6956C88.4616 31.7335 88.5945 31.8433 88.5945 32.0289C88.3439 32.3623 87.987 32.6919 87.5237 33.0252C86.8251 33.5063 86.1378 33.745 85.4581 33.745C84.5088 33.745 84.038 33.3131 84.038 32.4456C84.038 31.7638 84.5278 30.2333 85.5112 27.8544C86.3884 25.7141 87.201 23.9639 87.949 22.6002C88.6629 21.2933 89.4413 20.1682 90.2804 19.225C91.2449 18.1567 92.0689 17.6226 92.7486 17.6226C93.3029 17.6226 93.5801 17.9635 93.5801 18.6454L93.5839 18.6491ZM92.6195 18.6226C92.6195 18.4181 92.5397 18.3196 92.3764 18.3196C92.1638 18.3196 91.7347 18.7855 91.0892 19.7174C90.4475 20.6493 89.9007 21.6304 89.4527 22.6608L88.0857 25.7292C89.2134 24.7708 90.1513 23.6836 90.8994 22.4676C92.0423 20.6228 92.6157 19.3424 92.6157 18.6226H92.6195Z" fill="#1A1A18"/>
<path d="M96.4507 26.3919C96.4507 27.589 95.7786 28.6686 94.4383 29.627C93.3675 30.3657 92.384 30.7786 91.4879 30.8733C91.2753 31.4643 91.1651 31.9151 91.1651 32.2295C91.1651 32.8735 91.4955 33.1955 92.1562 33.1955C92.6916 33.1955 93.2991 32.9454 93.9788 32.4492C94.5142 32.0439 94.9243 31.6385 95.2129 31.2332C95.4445 31.1044 95.5888 31.1877 95.642 31.4832C95.3382 31.9264 94.9167 32.3583 94.3813 32.7826C93.5421 33.4076 92.7182 33.722 91.9132 33.722C90.5348 33.722 89.8475 33.0212 89.8475 31.6196C89.8475 30.218 90.4475 28.7671 91.6436 27.32C92.8397 25.873 93.9674 25.1494 95.023 25.1494C95.9685 25.1494 96.4431 25.5623 96.4431 26.3919H96.4507ZM95.323 26.2253C95.323 25.8767 95.1977 25.6987 94.9509 25.6987C94.5788 25.6987 94.0472 26.2139 93.3523 27.2481C92.7144 28.1686 92.1638 29.1762 91.7043 30.2634C92.5017 30.2255 93.3067 29.7482 94.1117 28.8239C94.9205 27.9034 95.323 27.0359 95.323 26.2253Z" fill="#1A1A18"/>
<path d="M105.378 25.5057C105.378 25.4489 105.253 25.6799 105.002 26.1989C104.626 26.9717 104.125 28.0892 103.502 29.5439C102.716 31.3698 102.321 32.4191 102.321 32.6956C102.321 32.9722 102.481 33.1123 102.803 33.1123C103.449 33.1123 104.098 32.5214 104.759 31.3432C105.097 31.2334 105.268 31.2864 105.268 31.5099C105.017 31.9721 104.687 32.4115 104.277 32.8358C103.65 33.4457 103.062 33.7487 102.507 33.7487C101.49 33.7487 100.981 33.332 100.981 32.5024C100.981 31.9115 101.258 30.9531 101.812 29.6272C102.203 28.7067 102.553 27.9794 102.857 27.4414L102.75 27.3013C102.321 27.5589 101.455 28.5476 100.149 30.2598C99.31 31.3849 98.6303 32.3244 98.1101 33.082C97.8595 33.4684 97.495 33.6616 97.009 33.6616C96.7963 33.6616 96.6862 33.5517 96.6862 33.3282C96.6862 33.2904 97.176 32.1918 98.1595 30.025C99.0177 28.1195 99.4467 26.9906 99.4467 26.6383C99.4467 26.2861 99.3214 26.1118 99.0708 26.1118C98.9797 26.1118 98.6341 26.2217 98.0266 26.4452C97.8292 26.3694 97.7684 26.2179 97.8405 25.9944C98.5202 25.4678 99.2531 25.2026 100.039 25.2026C100.29 25.2026 100.518 25.2898 100.723 25.4678C100.928 25.6459 101.03 25.8883 101.03 26.2027C101.03 26.7785 100.574 28.0097 99.6632 29.9037L99.7695 29.9606C100.286 29.2219 101.004 28.3695 101.915 27.4036C102.826 26.4376 103.479 25.8277 103.87 25.5777C104.261 25.3276 104.664 25.2026 105.078 25.2026C105.275 25.2026 105.374 25.3049 105.374 25.5057H105.378Z" fill="#1A1A18"/>
</svg>
