<svg width="21" height="21" viewBox="0 0 21 21" fill="none" xmlns="http://www.w3.org/2000/svg">
<g clip-path="url(#clip0_75_556)">
<path d="M1.24153 20.3702H19.7585C19.8699 20.3702 19.9767 20.3259 20.0555 20.2472C20.1342 20.1684 20.1785 20.0616 20.1785 19.9502V14.7142C20.1771 13.4856 19.6884 12.3077 18.8197 11.439C17.9509 10.5702 16.773 10.0816 15.5444 10.0802H13.3125C14.2407 9.47421 14.9484 8.58468 15.3302 7.54402C15.712 6.50336 15.7475 5.36722 15.4314 4.30477C15.1153 3.24231 14.4645 2.31035 13.5759 1.64765C12.6873 0.984954 11.6085 0.626953 10.5 0.626953C9.39153 0.626953 8.31269 0.984954 7.42411 1.64765C6.53553 2.31035 5.88475 3.24231 5.56865 4.30477C5.25254 5.36722 5.28803 6.50336 5.66982 7.54402C6.05161 8.58468 6.75928 9.47421 7.68748 10.0802H5.4556C4.227 10.0816 3.04911 10.5702 2.18036 11.439C1.3116 12.3077 0.822923 13.4856 0.821533 14.7142V19.9502C0.821533 20.0616 0.865783 20.1684 0.944548 20.2472C1.02331 20.3259 1.13014 20.3702 1.24153 20.3702ZM6.19501 5.77517C6.19501 4.92372 6.4475 4.09139 6.92054 3.38344C7.39358 2.67548 8.06593 2.1237 8.85256 1.79786C9.6392 1.47203 10.5048 1.38678 11.3399 1.55289C12.175 1.71899 12.942 2.12901 13.5441 2.73107C14.1462 3.33314 14.5562 4.10021 14.7223 4.9353C14.8884 5.77039 14.8031 6.63598 14.4773 7.42262C14.1515 8.20925 13.5997 8.8816 12.8917 9.35464C12.1838 9.82768 11.3515 10.0802 10.5 10.0802C9.35865 10.0789 8.2644 9.62492 7.45733 8.81785C6.65026 8.01078 6.19629 6.91653 6.19501 5.77517ZM1.66153 14.7142C1.6627 13.7083 2.06281 12.744 2.77408 12.0327C3.48535 11.3214 4.44971 10.9213 5.4556 10.9202H15.5444C16.5503 10.9213 17.5147 11.3214 18.2259 12.0327C18.9372 12.744 19.3373 13.7083 19.3385 14.7142V19.5302H1.66153V14.7142Z" fill="#0A0B0C"/>
</g>
<defs>
<clipPath id="clip0_75_556">
<rect width="21" height="21" fill="white"/>
</clipPath>
</defs>
</svg>
