<svg width="40" height="40" viewBox="0 0 40 40" fill="none" xmlns="http://www.w3.org/2000/svg">
<rect width="40" height="40" rx="20" fill="#0A0B0C"/>
<path fill-rule="evenodd" clip-rule="evenodd" d="M14.5 17.5C14.3674 17.5 14.2402 17.5527 14.1464 17.6464C14.0527 17.7402 14 17.8674 14 18V24.75C14 25.6953 14.8047 26.5 15.75 26.5H24.25C25.1953 26.5 26 25.734 26 24.7893V18C26 17.8674 25.9473 17.7402 25.8536 17.6464C25.7598 17.5527 25.6326 17.5 25.5 17.5H14.5Z" stroke="white"/>
<path d="M17 17.5V16.5C17 15.7044 17.3161 14.9413 17.8787 14.3787C18.4413 13.8161 19.2044 13.5 20 13.5C20.7956 13.5 21.5587 13.8161 22.1213 14.3787C22.6839 14.9413 23 15.7044 23 16.5V17.5" stroke="white"/>
</svg>
