<svg width="24" height="25" viewBox="0 0 24 25" fill="none" xmlns="http://www.w3.org/2000/svg">
<path d="M15.857 16.358L21 21.501M10.364 3.50001C9.38979 3.48866 8.42301 3.67074 7.51967 4.03569C6.61634 4.40065 5.7944 4.94124 5.10148 5.62613C4.40856 6.31102 3.85843 7.1266 3.48297 8.02562C3.10751 8.92465 2.91418 9.88924 2.91418 10.8635C2.91418 11.8378 3.10751 12.8024 3.48297 13.7014C3.85843 14.6004 4.40856 15.416 5.10148 16.1009C5.7944 16.7858 6.61634 17.3264 7.51967 17.6913C8.42301 18.0563 9.38979 18.2384 10.364 18.227C12.3021 18.2044 14.1531 17.4187 15.5156 16.0402C16.8781 14.6617 17.6422 12.8017 17.6422 10.8635C17.6422 8.92532 16.8781 7.06528 15.5156 5.68681C14.1531 4.30834 12.3021 3.5226 10.364 3.50001Z" stroke="#0A0B0C"/>
</svg>
